<svg width="512.15625" height="512.15625" viewBox="0 0 362.5 362.5" class="css-1j8o68f">
  <defs id="SvgjsDefs7414"></defs>
  <g id="SvgjsG7415" featurekey="rootContainer" transform="matrix(3.46558297177591,0,0,3.46558297177591,0.000021606682155114425,0.000021606682155114425)" fill="#3662e3">
    <path xmlns="http://www.w3.org/2000/svg" d="M52.3 104.6a52.3 52.3 0 1 1 52.3-52.3 52.4 52.4 0 0 1-52.3 52.3zm0-102.3a50 50 0 1 0 50 50 50 50 0 0 0-50-50z"></path>
  </g>
  <g id="SvgjsG7416" featurekey="nameFeature-0" transform="matrix(12.480441286892207,0,0,12.480441286892207,90.6100855194026,-205.04255849332037)" fill="#3662e3">
    <path d="M8.36 27.28 c2.4 -1.44 1.4 -5.56 -1 -2.16 c-2.2 3.12 -3.44 12.88 0.16 13.08 c3 0.2 4.88 -3.48 5.56 -5.96 c0.04 -0.04 1.64 0.32 1.48 0.92 c-0.84 3.12 -2.16 5.64 -5.2 6.68 c-3.2 1.08 -7.64 -0.2 -8.84 -3.52 c-1.32 -3.72 0.12 -10.96 3.28 -13.6 c0.88 -0.72 2 -1.12 3.48 -1.08 c2.88 0.04 4.6 2.32 3.68 5.04 c-0.76 2.2 -3.16 0.92 -2.6 0.6 z"></path>
  </g>
</svg>