<svg width="329" height="168.03373319846085" viewBox="0 0 329 168.03373319846085" class="css-1j8o68f">
  <defs id="SvgjsDefs9761"></defs>
  <g id="SvgjsG9762" featurekey="symbolGroupContainer" transform="matrix(3.262977282408339,0,0,3.262977282408339,0,-0.0326297417059071)" fill="#3662e3">
    <path xmlns="http://www.w3.org/2000/svg" d="M19.62 42.39l10.67 8.65c1.19 1 3.23.28 3.23-1.08V3.53c0-1.95-1.95-3.52-4.35-3.52H4.35C1.95.01 0 1.59 0 3.53v46.43c0 1.37 2 2 3.23 1.08l10.67-8.65a4.74 4.74 0 0 1 5.72 0z"></path>
  </g>
  <g id="SvgjsG9763" featurekey="monogramFeature-0" transform="matrix(3.209536707582397,0,0,3.209536707582397,19.84959601007353,-65.16836019275327)" fill="#ffffff">
    <path d="M12.54 40.92 c3.6 -2.16 2.1 -8.34 -1.5 -3.24 c-3.3 4.68 -5.16 19.32 0.24 19.62 c4.5 0.3 7.32 -5.22 8.34 -8.94 c0.06 -0.06 2.46 0.48 2.22 1.38 c-1.26 4.68 -3.24 8.46 -7.8 10.02 c-4.8 1.62 -11.46 -0.3 -13.26 -5.28 c-1.98 -5.58 0.18 -16.44 4.92 -20.4 c1.32 -1.08 3 -1.68 5.22 -1.62 c4.32 0.06 6.9 3.48 5.52 7.56 c-1.14 3.3 -4.74 1.38 -3.9 0.9 z"></path>
  </g>
  <g id="SvgjsG9764" featurekey="nameFeature-0" transform="matrix(1.4924064575910032,0,0,1.4924064575910032,128.9533741736069,44.114615055643014)" fill="#3662e3">
    <path d="M8.36 27.28 c2.4 -1.44 1.4 -5.56 -1 -2.16 c-2.2 3.12 -3.44 12.88 0.16 13.08 c3 0.2 4.88 -3.48 5.56 -5.96 c0.04 -0.04 1.64 0.32 1.48 0.92 c-0.84 3.12 -2.16 5.64 -5.2 6.68 c-3.2 1.08 -7.64 -0.2 -8.84 -3.52 c-1.32 -3.72 0.12 -10.96 3.28 -13.6 c0.88 -0.72 2 -1.12 3.48 -1.08 c2.88 0.04 4.6 2.32 3.68 5.04 c-0.76 2.2 -3.16 0.92 -2.6 0.6 z M19.448 24 c-0.36 0.16 -0.72 0.56 -1.16 1.16 c-2.2 3.12 -3.44 12.88 0.16 13.08 c1.4 0.08 2.88 -2.48 3.68 -5.56 c-0.4 -0.24 -0.8 -0.52 -1.12 -0.88 c-1.4 -1.64 -1.44 -4.48 -1 -6.6 c0.84 -3.88 3.32 -3.64 4 -2.6 l0 0 c0.36 0.44 0.56 1.12 0.72 2 c0.08 0.4 0.12 0.8 0.16 1.28 c0.08 1.6 -0.04 3.56 -0.44 5.48 c1.6 0.08 3.56 -1.08 3.96 -2.68 c0 0 1.6 0.44 1.48 0.84 c-0.6 2.08 -3.4 3.68 -5.88 3.6 c-0.8 2.92 -2.2 5.52 -4.2 6.68 c-3.44 1.92 -8 -0.28 -8.72 -4.88 c-0.6 -3.92 0.84 -9.84 3.64 -12.16 c3.68 -3 5.68 0.68 4.72 1.24 z M32.096000000000004 24.68 c-0.16 1.32 -0.44 2.88 -0.76 4.52 c0.88 -2.32 2.32 -5.36 3.56 -6.36 c0.68 -0.52 1.48 -0.76 2.32 -0.72 c2.8 0.12 4.04 2 3.52 4.68 c-0.48 2.52 -1.92 7.96 -0.88 10.28 c0.68 1.48 2.72 0.08 4.16 -4.84 c0 0 1.6 0.36 1.48 0.88 c-1 3.68 -2.4 5.72 -4.28 6.48 c-2.16 0.88 -4.88 0.12 -5.88 -2.12 c-1.68 -3.64 0.28 -8.24 0.6 -12.04 c0.04 -0.6 -0.04 -0.96 -0.4 -0.6 c-2.56 2.48 -4.92 11.12 -6.04 14.64 l0 0.16 c0 0.72 -4.28 0.76 -4 -3.28 s1.32 -9.56 1.64 -13.48 c0.08 -1.28 5.32 -0.88 4.96 1.8 z M48.304 24.68 c-0.16 1.32 -0.44 2.88 -0.76 4.52 c0.88 -2.32 2.32 -5.36 3.56 -6.36 c0.68 -0.52 1.48 -0.76 2.32 -0.72 c2.8 0.12 4.04 2 3.52 4.68 c-0.48 2.52 -1.92 7.96 -0.88 10.28 c0.68 1.48 2.72 0.08 4.16 -4.84 c0 0 1.6 0.36 1.48 0.88 c-1 3.68 -2.4 5.72 -4.28 6.48 c-2.16 0.88 -4.88 0.12 -5.88 -2.12 c-1.68 -3.64 0.28 -8.24 0.6 -12.04 c0.04 -0.6 -0.04 -0.96 -0.4 -0.6 c-2.56 2.48 -4.92 11.12 -6.04 14.64 l0 0.16 c0 0.72 -4.28 0.76 -4 -3.28 s1.32 -9.56 1.64 -13.48 c0.08 -1.28 5.32 -0.88 4.96 1.8 z M69.19200000000001 24.4 c0.88 3.92 -2.4 8.68 -5.84 8.04 c-0.2 3 0.36 5.64 2.24 5.76 c3 0.2 4.88 -3.36 5.56 -5.96 c0 -0.04 1.64 0.28 1.48 0.96 c-0.84 3.08 -2.2 5.6 -5.2 6.64 c-3.2 1.08 -7.64 -0.2 -8.84 -3.52 c-1.32 -3.72 0.12 -11 3.28 -13.6 c2.24 -1.8 6.56 -1.48 7.32 1.68 l0 0 z M64.632 26.439999999999998 c-0.48 1.24 -0.92 2.88 -1.12 4.44 c3.16 0.36 5.12 -6.52 3.56 -7.04 c-1.08 -0.36 -2.08 1.72 -2.44 2.6 z M77.36 27.28 c2.4 -1.44 1.4 -5.56 -1 -2.16 c-2.2 3.12 -3.44 12.88 0.16 13.08 c3 0.2 4.88 -3.48 5.56 -5.96 c0.04 -0.04 1.64 0.32 1.48 0.92 c-0.84 3.12 -2.16 5.64 -5.2 6.68 c-3.2 1.08 -7.64 -0.2 -8.84 -3.52 c-1.32 -3.72 0.12 -10.96 3.28 -13.6 c0.88 -0.72 2 -1.12 3.48 -1.08 c2.88 0.04 4.6 2.32 3.68 5.04 c-0.76 2.2 -3.16 0.92 -2.6 0.6 z M82.688 13.96 c0.04 -1.28 5.68 -0.64 5.4 2.04 c-0.16 1.68 -0.76 4.2 -1.36 6.88 c2.16 -0.2 3.88 -0.4 4.16 -0.52 c0.84 -0.4 0.48 2.44 -0.8 2.52 c-0.24 0 -1.88 0.08 -3.88 0.16 c-1.08 4.8 -2.04 9.8 -1.04 12.04 c0.64 1.48 2.72 0.08 4.12 -4.84 c0 -0.04 1.64 0.32 1.48 0.92 c-1 3.68 -2.36 5.68 -4.24 6.44 c-2.2 0.88 -4.88 0.12 -5.92 -2.08 c-1.12 -2.48 -0.48 -7.36 0.36 -12.32 c-1.56 0.04 -2.76 0.08 -3.04 0.04 c-1.56 -0.2 -1.24 -1.56 -0.96 -1.56 c0.4 0 2.16 -0.16 4.32 -0.32 c0.64 -3.6 1.32 -7.08 1.4 -9.4 z M101.224 24.68 c-0.16 1.32 -0.44 2.88 -0.76 4.52 c0.88 -2.32 2.36 -5.36 3.56 -6.36 c0.68 -0.52 1.48 -0.76 2.32 -0.72 c2.8 0.12 4.04 2 3.52 4.68 c0 0.12 -0.04 0.24 -0.04 0.36 c0.8 -1.8 1.8 -3.6 2.72 -4.32 c0.64 -0.52 1.44 -0.76 2.28 -0.72 c2.8 0.12 4.04 2 3.56 4.68 c-0.48 2.52 -1.92 7.96 -0.92 10.28 c0.68 1.48 2.72 0.08 4.16 -4.84 c0 0 1.6 0.36 1.48 0.88 c-1 3.72 -2.36 5.72 -4.28 6.48 c-2.16 0.88 -4.88 0.12 -5.88 -2.12 c-1.68 -3.64 0.28 -8.24 0.6 -12.04 c0.08 -0.6 0 -0.96 -0.36 -0.6 c-1.8 1.72 -3.44 6.36 -4.68 10.2 c-0.24 1.2 -0.48 2.44 -0.8 3.68 c-0.72 2.84 -4.04 0 -4.04 -1.48 c0 -4.28 1.04 -7.72 1.4 -11.8 c0.04 -0.6 -0.04 -0.96 -0.4 -0.6 c-2.56 2.48 -4.88 11.12 -6.04 14.64 l0 0.16 c0 0.72 -4.28 0.8 -4 -3.28 c0.28 -4.04 1.32 -9.56 1.64 -13.48 c0.08 -1.28 5.32 -0.88 4.96 1.8 z M130.592 24.4 c0.88 3.92 -2.4 8.68 -5.84 8.04 c-0.2 3 0.36 5.64 2.24 5.76 c3 0.2 4.88 -3.36 5.56 -5.96 c0 -0.04 1.64 0.28 1.48 0.96 c-0.84 3.08 -2.2 5.6 -5.2 6.64 c-3.2 1.08 -7.64 -0.2 -8.84 -3.52 c-1.32 -3.72 0.12 -11 3.28 -13.6 c2.24 -1.8 6.56 -1.48 7.32 1.68 l0 0 z M126.03200000000001 26.439999999999998 c-0.48 1.24 -0.92 2.88 -1.12 4.44 c3.16 0.36 5.12 -6.52 3.56 -7.04 c-1.08 -0.36 -2.08 1.72 -2.44 2.6 z"></path>
  </g>
</svg>