<svg width="512.15625" height="512.15625" viewBox="0 0 362.50000000000006 362.50000000000006" class="css-1j8o68f">
  <defs id="SvgjsDefs7359"></defs>
  <g id="SvgjsG7360" featurekey="rootContainer" transform="matrix(1.808611551397828,0,0,1.808611551397828,0,0)" fill="#ffffff">
    <path xmlns="http://www.w3.org/2000/svg" d="M100.215 200.43c55.259 0 100.215-44.956 100.215-100.215S155.474 0 100.215 0 0 44.956 0 100.215 44.956 200.43 100.215 200.43zm0-190.43c49.745 0 90.215 40.47 90.215 90.215s-40.47 90.215-90.215 90.215C50.47 190.43 10 149.959 10 100.215S50.47 10 100.215 10z"></path>
  </g>
  <g id="SvgjsG7361" featurekey="nameFeature-0" transform="matrix(12.480441286892207,0,0,12.480441286892207,90.6100855194026,-205.04255849332037)" fill="#ffffff">
    <path d="M8.36 27.28 c2.4 -1.44 1.4 -5.56 -1 -2.16 c-2.2 3.12 -3.44 12.88 0.16 13.08 c3 0.2 4.88 -3.48 5.56 -5.96 c0.04 -0.04 1.64 0.32 1.48 0.92 c-0.84 3.12 -2.16 5.64 -5.2 6.68 c-3.2 1.08 -7.64 -0.2 -8.84 -3.52 c-1.32 -3.72 0.12 -10.96 3.28 -13.6 c0.88 -0.72 2 -1.12 3.48 -1.08 c2.88 0.04 4.6 2.32 3.68 5.04 c-0.76 2.2 -3.16 0.92 -2.6 0.6 z"></path>
  </g>
</svg>