<svg width="200" height="291" viewBox="0 0 200 291" class="css-1j8o68f"><defs id="SvgjsDefs6184"></defs><g id="SvgjsG6185" featurekey="rootContainer" transform="matrix(1,0,0,1,0,0)" fill="#3662e3"><rect y="0" height="1" width="1" opacity="0"></rect><rect y="286" width="200" height="5"></rect></g><g id="SvgjsG6186" featurekey="nameFeature-0" transform="matrix(13.75515822040699,0,0,13.75515822040699,-0.42973924156655763,-279.6239407672487)" fill="#3662e3"><path d="M8.36 27.28 c2.4 -1.44 1.4 -5.56 -1 -2.16 c-2.2 3.12 -3.44 12.88 0.16 13.08 c3 0.2 4.88 -3.48 5.56 -5.96 c0.04 -0.04 1.64 0.32 1.48 0.92 c-0.84 3.12 -2.16 5.64 -5.2 6.68 c-3.2 1.08 -7.64 -0.2 -8.84 -3.52 c-1.32 -3.72 0.12 -10.96 3.28 -13.6 c0.88 -0.72 2 -1.12 3.48 -1.08 c2.88 0.04 4.6 2.32 3.68 5.04 c-0.76 2.2 -3.16 0.92 -2.6 0.6 z"></path></g></svg>