<svg width="512.15625" height="512.15625" viewBox="0 0 362.5 362.5" class="css-1j8o68f">
  <defs id="SvgjsDefs7374"></defs>
  <g id="SvgjsG7375" featurekey="rootContainer" transform="matrix(1.8447086536254493,0,0,1.8447086536254493,0,0)" fill="#3662e3">
    <path xmlns="http://www.w3.org/2000/svg" d="M98.254 0C44.077 0 0 44.076 0 98.254s44.077 98.254 98.254 98.254c54.177 0 98.254-44.076 98.254-98.254S152.431 0 98.254 0zm0 195.508C44.628 195.508 1 151.88 1 98.254S44.628 1 98.254 1c53.626 0 97.254 43.628 97.254 97.254s-43.628 97.254-97.254 97.254z"></path>
    <path xmlns="http://www.w3.org/2000/svg" d="M98.254 5.453c-51.171 0-92.801 41.63-92.801 92.801s41.63 92.801 92.801 92.801 92.802-41.63 92.802-92.801S149.425 5.453 98.254 5.453z"></path>
  </g>
  <g id="SvgjsG7376" featurekey="nameFeature-0" transform="matrix(12.480441286892207,0,0,12.480441286892207,90.6100855194026,-205.04255849332037)" fill="#ffffff">
    <path d="M8.36 27.28 c2.4 -1.44 1.4 -5.56 -1 -2.16 c-2.2 3.12 -3.44 12.88 0.16 13.08 c3 0.2 4.88 -3.48 5.56 -5.96 c0.04 -0.04 1.64 0.32 1.48 0.92 c-0.84 3.12 -2.16 5.64 -5.2 6.68 c-3.2 1.08 -7.64 -0.2 -8.84 -3.52 c-1.32 -3.72 0.12 -10.96 3.28 -13.6 c0.88 -0.72 2 -1.12 3.48 -1.08 c2.88 0.04 4.6 2.32 3.68 5.04 c-0.76 2.2 -3.16 0.92 -2.6 0.6 z"></path>
  </g>
</svg>