<svg width="512.15625" height="512.15625" viewBox="0 0 362.49999999999994 362.49999999999994" class="css-1j8o68f"><defs id="SvgjsDefs6214"></defs><g id="SvgjsG6215" featurekey="rootContainer" transform="matrix(7.249999999999999,0,0,7.249999999999999,0.36249533295631403,0)" fill="#ffffff"><path xmlns="http://www.w3.org/2000/svg" d="M24.95 0a25 25 0 1 0 25 25 25 25 0 0 0-25-25zm0 46.91a22 22 0 1 1 22-22 22 22 0 0 1-22 21.99z"></path><path xmlns="http://www.w3.org/2000/svg" d="M24.95 3.65a21.3 21.3 0 1 0 21.3 21.3 21.33 21.33 0 0 0-21.3-21.3z"></path></g><g id="SvgjsG6216" featurekey="nameFeature-0" transform="matrix(12.480441286892207,0,0,12.480441286892207,90.6100855194026,-205.04255849332037)" fill="#3662e3"><path d="M8.36 27.28 c2.4 -1.44 1.4 -5.56 -1 -2.16 c-2.2 3.12 -3.44 12.88 0.16 13.08 c3 0.2 4.88 -3.48 5.56 -5.96 c0.04 -0.04 1.64 0.32 1.48 0.92 c-0.84 3.12 -2.16 5.64 -5.2 6.68 c-3.2 1.08 -7.64 -0.2 -8.84 -3.52 c-1.32 -3.72 0.12 -10.96 3.28 -13.6 c0.88 -0.72 2 -1.12 3.48 -1.08 c2.88 0.04 4.6 2.32 3.68 5.04 c-0.76 2.2 -3.16 0.92 -2.6 0.6 z"></path></g></svg>