<svg width="362" height="139.0625" viewBox="0 0 362 139.0625" class="css-1j8o68f">
  <defs id="SvgjsDefs9929"></defs>
  <g id="SvgjsG9930" featurekey="symbolGroupContainer" transform="matrix(1.370552211360638,0,0,1.370552211360638,0,-1.0079250380877414)" fill="#3662e3">
    <path xmlns="http://www.w3.org/2000/svg" d="M103.9 47.3a6.1 6.1 0 0 1-.2-.8 9.5 9.5 0 0 1 0-1.9V42c0-.3-.1-.6-.1-.8a6.8 6.8 0 0 0-.5-1.5l-.2-.3-.2-.3-.5-.5-.3-1.5-.3-1.2c-.1-.5-.4-1.1-.6-1.6a2.9 2.9 0 0 1-.3-1.4 4.7 4.7 0 0 0 0-1.4 6.1 6.1 0 0 0-.4-1.2l-.6-1.3-.7-1-.8-1.2-.8-1.2-.7-1.2-.7-1.2-.7-1.2-.7-1.3-1.4-2.6-1-.5-1-.6-.9-.9a4.7 4.7 0 0 1-.7-1.3c-.1-.2-.4-.3-.7-.4l-1.2-.7-1.2-.7-1.3-.9-1.2-.8-1.4-.8-.7-.4-.7-.4-1-.6-.5-.3-.5-.3-1.1-.5-.5-.3-.5-.3a58.9 58.9 0 0 0-9.6-3.9 10.5 10.5 0 0 1-1.4-.8l-.6-.3-.5-.2-1.2-.4-2.6-.6h-1.3L58.6.8H52a1.6 1.6 0 0 0-.9 0l-.8.3h-1L47.4.9l-.9.2-.9.2-.9.2-.9.3-1.1.4-1 .5-2 1L37.9 5l-.4.3-.4.4-.7.8-.6.5-.7.3a3.7 3.7 0 0 1-1.5.1H32L30.2 7l-1.7-.2h-1.7l-1.7.4-1.6.6-.8.4-.8.4-1.6.9-3 2-1.1.8-1 .9-.6.5-.3.2-.3.3-1.1 1-.5.6-.4.6a4.6 4.6 0 0 0-.5 1.4 2.6 2.6 0 0 1-.3.7l-1.5 2.6-.7 1.3-.6 1.3-1.3 2.9-.1.4-.2.4-.3.7-.3.7-.2.4-.2.4-1.3 2.8-.7 1.4-.7 1.4-.3.6-.3.6-.5 1.3v.6l-.2.6-.4 1.3-.6 1.4L.5 43l-.2 1.4c-.1.5-.2.9-.2 1.4s-.1.9-.1 1.4v1.4c0 .5.1.9.1 1.4v.7l.2.6a5.8 5.8 0 0 0-.1 1.4V54l.3 1.3a13.3 13.3 0 0 1 .3 1.3 8.2 8.2 0 0 1 .2 3.8 6.6 6.6 0 0 0-.2 4 2.7 2.7 0 0 1 0 .8v3a8.9 8.9 0 0 1-.1 1c-.1.8 0 .5.4.6s.3.5.5.8a7 7 0 0 1 .7 2.1v1.1a6.4 6.4 0 0 0 .4 1l.7 1.6.3.8.3.8a7.9 7.9 0 0 0 1 1.9l1.4 1.9 1.5 1.8 2.1 2.3 1 1.1.5.5.5.5 1.5 1.2 1.5 1.1 1.6 1 1.6.9.9.5.9.5 1.8.9 3.7 1.5a45.8 45.8 0 0 0 8.8 2l.8.2.8.2 1.6.6h.5l.5.2 1.1.4 1 .5.9.7.6.3.8.2 1.2.4h.6l.6.2 1.3.3h1.2l1.2.2h4l1.3.2h1.4l1.4-.2 1.9-.5.9-.3.9-.3.9-.3.9-.3 2-.3.7-.3a51.9 51.9 0 0 0 8.3-4.1l1.2-.7 1.2-.8 2.4-1.7 1.2-.9 1.2-.9 1.1-1 .6-.5.5-.5 1.1-1 1-1.1 2-2.2.9-1.1.8-1.2a44.2 44.2 0 0 0 4.2-8.3l.5-1.3.2-.7.2-.7.3-1.4v-.7a15.8 15.8 0 0 0 .1-2.6c0-.5 0-1-.1-1.4A47.1 47.1 0 0 0 95.7 53v-1.2l1 .7a2.9 2.9 0 0 0 4.1-.9l.6-.8.6-.8 1.1-1.8z"></path>
  </g>
  <g id="SvgjsG9931" featurekey="monogramFeature-0" transform="matrix(3.209536707582397,0,0,3.209536707582397,35.849596010073526,-79.16836019275327)" fill="#ffffff">
    <path d="M12.54 40.92 c3.6 -2.16 2.1 -8.34 -1.5 -3.24 c-3.3 4.68 -5.16 19.32 0.24 19.62 c4.5 0.3 7.32 -5.22 8.34 -8.94 c0.06 -0.06 2.46 0.48 2.22 1.38 c-1.26 4.68 -3.24 8.46 -7.8 10.02 c-4.8 1.62 -11.46 -0.3 -13.26 -5.28 c-1.98 -5.58 0.18 -16.44 4.92 -20.4 c1.32 -1.08 3 -1.68 5.22 -1.62 c4.32 0.06 6.9 3.48 5.52 7.56 c-1.14 3.3 -4.74 1.38 -3.9 0.9 z"></path>
  </g>
  <g id="SvgjsG9932" featurekey="nameFeature-0" transform="matrix(1.4924064575910032,0,0,1.4924064575910032,161.9533741736069,29.114615055643014)" fill="#3662e3">
    <path d="M8.36 27.28 c2.4 -1.44 1.4 -5.56 -1 -2.16 c-2.2 3.12 -3.44 12.88 0.16 13.08 c3 0.2 4.88 -3.48 5.56 -5.96 c0.04 -0.04 1.64 0.32 1.48 0.92 c-0.84 3.12 -2.16 5.64 -5.2 6.68 c-3.2 1.08 -7.64 -0.2 -8.84 -3.52 c-1.32 -3.72 0.12 -10.96 3.28 -13.6 c0.88 -0.72 2 -1.12 3.48 -1.08 c2.88 0.04 4.6 2.32 3.68 5.04 c-0.76 2.2 -3.16 0.92 -2.6 0.6 z M19.448 24 c-0.36 0.16 -0.72 0.56 -1.16 1.16 c-2.2 3.12 -3.44 12.88 0.16 13.08 c1.4 0.08 2.88 -2.48 3.68 -5.56 c-0.4 -0.24 -0.8 -0.52 -1.12 -0.88 c-1.4 -1.64 -1.44 -4.48 -1 -6.6 c0.84 -3.88 3.32 -3.64 4 -2.6 l0 0 c0.36 0.44 0.56 1.12 0.72 2 c0.08 0.4 0.12 0.8 0.16 1.28 c0.08 1.6 -0.04 3.56 -0.44 5.48 c1.6 0.08 3.56 -1.08 3.96 -2.68 c0 0 1.6 0.44 1.48 0.84 c-0.6 2.08 -3.4 3.68 -5.88 3.6 c-0.8 2.92 -2.2 5.52 -4.2 6.68 c-3.44 1.92 -8 -0.28 -8.72 -4.88 c-0.6 -3.92 0.84 -9.84 3.64 -12.16 c3.68 -3 5.68 0.68 4.72 1.24 z M32.096000000000004 24.68 c-0.16 1.32 -0.44 2.88 -0.76 4.52 c0.88 -2.32 2.32 -5.36 3.56 -6.36 c0.68 -0.52 1.48 -0.76 2.32 -0.72 c2.8 0.12 4.04 2 3.52 4.68 c-0.48 2.52 -1.92 7.96 -0.88 10.28 c0.68 1.48 2.72 0.08 4.16 -4.84 c0 0 1.6 0.36 1.48 0.88 c-1 3.68 -2.4 5.72 -4.28 6.48 c-2.16 0.88 -4.88 0.12 -5.88 -2.12 c-1.68 -3.64 0.28 -8.24 0.6 -12.04 c0.04 -0.6 -0.04 -0.96 -0.4 -0.6 c-2.56 2.48 -4.92 11.12 -6.04 14.64 l0 0.16 c0 0.72 -4.28 0.76 -4 -3.28 s1.32 -9.56 1.64 -13.48 c0.08 -1.28 5.32 -0.88 4.96 1.8 z M48.304 24.68 c-0.16 1.32 -0.44 2.88 -0.76 4.52 c0.88 -2.32 2.32 -5.36 3.56 -6.36 c0.68 -0.52 1.48 -0.76 2.32 -0.72 c2.8 0.12 4.04 2 3.52 4.68 c-0.48 2.52 -1.92 7.96 -0.88 10.28 c0.68 1.48 2.72 0.08 4.16 -4.84 c0 0 1.6 0.36 1.48 0.88 c-1 3.68 -2.4 5.72 -4.28 6.48 c-2.16 0.88 -4.88 0.12 -5.88 -2.12 c-1.68 -3.64 0.28 -8.24 0.6 -12.04 c0.04 -0.6 -0.04 -0.96 -0.4 -0.6 c-2.56 2.48 -4.92 11.12 -6.04 14.64 l0 0.16 c0 0.72 -4.28 0.76 -4 -3.28 s1.32 -9.56 1.64 -13.48 c0.08 -1.28 5.32 -0.88 4.96 1.8 z M69.19200000000001 24.4 c0.88 3.92 -2.4 8.68 -5.84 8.04 c-0.2 3 0.36 5.64 2.24 5.76 c3 0.2 4.88 -3.36 5.56 -5.96 c0 -0.04 1.64 0.28 1.48 0.96 c-0.84 3.08 -2.2 5.6 -5.2 6.64 c-3.2 1.08 -7.64 -0.2 -8.84 -3.52 c-1.32 -3.72 0.12 -11 3.28 -13.6 c2.24 -1.8 6.56 -1.48 7.32 1.68 l0 0 z M64.632 26.439999999999998 c-0.48 1.24 -0.92 2.88 -1.12 4.44 c3.16 0.36 5.12 -6.52 3.56 -7.04 c-1.08 -0.36 -2.08 1.72 -2.44 2.6 z M77.36 27.28 c2.4 -1.44 1.4 -5.56 -1 -2.16 c-2.2 3.12 -3.44 12.88 0.16 13.08 c3 0.2 4.88 -3.48 5.56 -5.96 c0.04 -0.04 1.64 0.32 1.48 0.92 c-0.84 3.12 -2.16 5.64 -5.2 6.68 c-3.2 1.08 -7.64 -0.2 -8.84 -3.52 c-1.32 -3.72 0.12 -10.96 3.28 -13.6 c0.88 -0.72 2 -1.12 3.48 -1.08 c2.88 0.04 4.6 2.32 3.68 5.04 c-0.76 2.2 -3.16 0.92 -2.6 0.6 z M82.688 13.96 c0.04 -1.28 5.68 -0.64 5.4 2.04 c-0.16 1.68 -0.76 4.2 -1.36 6.88 c2.16 -0.2 3.88 -0.4 4.16 -0.52 c0.84 -0.4 0.48 2.44 -0.8 2.52 c-0.24 0 -1.88 0.08 -3.88 0.16 c-1.08 4.8 -2.04 9.8 -1.04 12.04 c0.64 1.48 2.72 0.08 4.12 -4.84 c0 -0.04 1.64 0.32 1.48 0.92 c-1 3.68 -2.36 5.68 -4.24 6.44 c-2.2 0.88 -4.88 0.12 -5.92 -2.08 c-1.12 -2.48 -0.48 -7.36 0.36 -12.32 c-1.56 0.04 -2.76 0.08 -3.04 0.04 c-1.56 -0.2 -1.24 -1.56 -0.96 -1.56 c0.4 0 2.16 -0.16 4.32 -0.32 c0.64 -3.6 1.32 -7.08 1.4 -9.4 z M101.224 24.68 c-0.16 1.32 -0.44 2.88 -0.76 4.52 c0.88 -2.32 2.36 -5.36 3.56 -6.36 c0.68 -0.52 1.48 -0.76 2.32 -0.72 c2.8 0.12 4.04 2 3.52 4.68 c0 0.12 -0.04 0.24 -0.04 0.36 c0.8 -1.8 1.8 -3.6 2.72 -4.32 c0.64 -0.52 1.44 -0.76 2.28 -0.72 c2.8 0.12 4.04 2 3.56 4.68 c-0.48 2.52 -1.92 7.96 -0.92 10.28 c0.68 1.48 2.72 0.08 4.16 -4.84 c0 0 1.6 0.36 1.48 0.88 c-1 3.72 -2.36 5.72 -4.28 6.48 c-2.16 0.88 -4.88 0.12 -5.88 -2.12 c-1.68 -3.64 0.28 -8.24 0.6 -12.04 c0.08 -0.6 0 -0.96 -0.36 -0.6 c-1.8 1.72 -3.44 6.36 -4.68 10.2 c-0.24 1.2 -0.48 2.44 -0.8 3.68 c-0.72 2.84 -4.04 0 -4.04 -1.48 c0 -4.28 1.04 -7.72 1.4 -11.8 c0.04 -0.6 -0.04 -0.96 -0.4 -0.6 c-2.56 2.48 -4.88 11.12 -6.04 14.64 l0 0.16 c0 0.72 -4.28 0.8 -4 -3.28 c0.28 -4.04 1.32 -9.56 1.64 -13.48 c0.08 -1.28 5.32 -0.88 4.96 1.8 z M130.592 24.4 c0.88 3.92 -2.4 8.68 -5.84 8.04 c-0.2 3 0.36 5.64 2.24 5.76 c3 0.2 4.88 -3.36 5.56 -5.96 c0 -0.04 1.64 0.28 1.48 0.96 c-0.84 3.08 -2.2 5.6 -5.2 6.64 c-3.2 1.08 -7.64 -0.2 -8.84 -3.52 c-1.32 -3.72 0.12 -11 3.28 -13.6 c2.24 -1.8 6.56 -1.48 7.32 1.68 l0 0 z M126.03200000000001 26.439999999999998 c-0.48 1.24 -0.92 2.88 -1.12 4.44 c3.16 0.36 5.12 -6.52 3.56 -7.04 c-1.08 -0.36 -2.08 1.72 -2.44 2.6 z"></path>
  </g>
</svg>