<svg width="499.99999999999994" height="499.99999999999994" xmlns="http://www.w3.org/2000/svg">

 <g>
  <title>Layer 1</title>
  <g id="freepik--background-complete--inject-8">
   <path id="svg_1" fill="#f5f5f5" d="m429,464.07c-62.14,-1.54 -125.17,7.1 -186,-5.75l-1.3,1.68a211.87,211.87 0 0 0 103.66,28c20.49,0.12 40.87,-2.75 61.15,-5.61c17.88,-2.52 35.93,-5.08 52.8,-11.49c-8.77,-5.84 -19.84,-6.57 -30.31,-6.83z"/>
   <rect id="svg_2" fill="#ebebeb" height="108.43" width="54.7" y="127.34" x="232.44"/>
   <rect id="svg_3" fill="#ebebeb" height="108.43" width="59.1" y="127.34" x="289.25"/>
   <rect id="svg_4" fill="#ebebeb" height="104.77" width="59.1" y="243.35" x="289.25"/>
   <polygon id="svg_5" fill="#ebebeb" points="355.93 125.47 418.17 125.47 418.17 29.28 420.28 29.28 420.28 125.47 470.93 125.47 470.93 27.14 355.93 27.14 355.93 125.47"/>
   <rect id="svg_6" fill="#ebebeb" height="108.43" width="50.65" y="127.34" x="420.28"/>
   <rect id="svg_7" fill="#ebebeb" height="104.77" width="50.65" y="243.35" x="420.28"/>
   <rect id="svg_8" fill="#ebebeb" height="104.77" width="54.7" y="243.35" x="232.44"/>
   <rect id="svg_9" fill="#ebebeb" height="104.77" width="62.24" y="243.35" x="355.93"/>
   <rect id="svg_10" fill="#ebebeb" height="94.41" width="54.7" y="349.99" x="232.44"/>
   <rect id="svg_11" fill="#ebebeb" height="94.41" width="50.65" y="349.99" x="420.28"/>
   <polygon id="svg_12" fill="#ebebeb" points="287.15 125.47 287.15 29.28 289.25 29.28 289.25 125.47 348.35 125.47 348.35 27.14 232.44 27.14 232.44 125.47 287.15 125.47"/>
   <rect id="svg_13" fill="#ebebeb" height="94.41" width="62.24" y="349.99" x="355.93"/>
   <rect id="svg_14" fill="#ebebeb" height="94.41" width="59.1" y="349.99" x="289.25"/>
   <rect id="svg_15" fill="#ebebeb" height="108.43" width="62.24" y="127.34" x="355.93"/>
   <rect id="svg_16" fill="#fafafa" height="126.92" width="141.86" y="45.98" x="51.49"/>
   <path id="svg_17" fill="#e0e0e0" d="m193.35,172.9s0,-0.82 0,-2.36s0,-3.83 0,-6.8c0,-6 -0.05,-14.67 -0.09,-25.76c0,-22.18 -0.09,-53.87 -0.16,-92l0.32,0.32l-141.92,0.06l0,0l0.37,-0.38c0,46.17 0,89.62 0,126.92l-0.33,-0.34l102.6,0.17l28.94,0.09l7.66,0l2,0c0.44,0 0.68,0 0.68,0l-0.64,0l-1.94,0l-7.6,0l-28.86,0.09l-102.82,0.17l-0.34,0l0,-0.33c0,-37.3 0,-80.75 0,-126.92l0,-0.23l0.39,0l141.85,0l0.32,0l0,0.4c-0.07,38.22 -0.13,70 -0.17,92.2c0,11.06 -0.06,19.75 -0.08,25.69c0,2.94 0,5.2 0,6.74s-0.18,2.27 -0.18,2.27z"/>
   <path id="svg_18" fill="#e0e0e0" d="m105.88,68.53c0,0.21 -7.47,0.38 -16.68,0.38s-16.67,-0.17 -16.67,-0.38s7.46,-0.38 16.67,-0.38s16.68,0.17 16.68,0.38z"/>
   <path id="svg_19" fill="#e0e0e0" d="m166,78.06c0,0.21 -20.51,0.38 -45.81,0.38s-45.82,-0.17 -45.82,-0.38s20.51,-0.38 45.82,-0.38s45.81,0.17 45.81,0.38z"/>
   <rect id="svg_20" fill="#e0e0e0" height="5.98" width="5.98" y="94.2" x="72.77"/>
   <rect id="svg_21" fill="#e0e0e0" height="5.98" width="5.98" y="94.2" x="87.48"/>
   <rect id="svg_22" fill="#e0e0e0" height="5.98" width="5.98" y="93.93" x="102.47"/>
   <rect id="svg_23" fill="#e0e0e0" height="5.98" width="5.98" y="94.2" x="116.91"/>
   <rect id="svg_24" fill="#e0e0e0" height="5.98" width="5.98" y="94.2" x="131.62"/>
   <rect id="svg_25" fill="#e0e0e0" height="5.98" width="5.98" y="94.2" x="146.33"/>
   <rect id="svg_26" fill="#ebebeb" height="5.98" width="5.98" y="94.2" x="161.04"/>
   <rect id="svg_27" fill="#ebebeb" height="5.98" width="5.98" y="106.91" x="72.77"/>
   <rect id="svg_28" fill="#e0e0e0" height="5.98" width="5.98" y="106.91" x="87.48"/>
   <rect id="svg_29" fill="#ebebeb" height="5.98" width="5.98" y="106.91" x="102.19"/>
   <rect id="svg_30" fill="#e0e0e0" height="5.98" width="5.98" y="106.91" x="116.91"/>
   <rect id="svg_31" fill="#e0e0e0" height="5.98" width="5.98" y="106.91" x="131.62"/>
   <rect id="svg_32" fill="#e0e0e0" height="5.98" width="5.98" y="106.63" x="146.6"/>
   <rect id="svg_33" fill="#e0e0e0" height="5.98" width="5.98" y="106.91" x="161.04"/>
   <rect id="svg_34" fill="#e0e0e0" height="5.98" width="5.98" y="119.61" x="72.77"/>
   <rect id="svg_35" fill="#e0e0e0" height="5.98" width="5.98" y="119.34" x="87.75"/>
   <rect id="svg_36" fill="#e0e0e0" height="5.98" width="5.98" y="119.61" x="102.19"/>
   <rect id="svg_37" fill="#ebebeb" height="5.98" width="5.98" y="119.61" x="116.91"/>
   <rect id="svg_38" fill="#e0e0e0" height="5.98" width="5.98" y="119.61" x="131.62"/>
   <rect id="svg_39" fill="#e0e0e0" height="5.98" width="5.98" y="119.61" x="146.33"/>
   <rect id="svg_40" fill="#e0e0e0" height="5.98" width="5.98" y="119.61" x="161.04"/>
   <rect id="svg_41" fill="#e0e0e0" height="5.98" width="5.98" y="132.32" x="72.77"/>
   <rect id="svg_42" fill="#e0e0e0" height="5.98" width="5.98" y="132.32" x="87.48"/>
   <rect id="svg_43" fill="#e0e0e0" height="5.98" width="5.98" y="132.32" x="102.19"/>
   <rect id="svg_44" fill="#e0e0e0" height="5.98" width="5.98" y="132.05" x="117.18"/>
   <rect id="svg_45" fill="#e0e0e0" height="5.98" width="5.98" y="132.32" x="131.62"/>
   <rect id="svg_46" fill="#ebebeb" height="5.98" width="5.98" y="132.32" x="146.33"/>
   <rect id="svg_47" fill="#e0e0e0" height="5.98" width="5.98" y="132.32" x="161.04"/>
   <rect id="svg_48" fill="#e0e0e0" height="5.98" width="5.98" y="145.02" x="72.77"/>
   <rect id="svg_49" fill="#ebebeb" height="5.98" width="5.98" y="145.02" x="87.48"/>
   <rect id="svg_50" fill="#e0e0e0" height="5.98" width="5.98" y="145.02" x="102.19"/>
   <rect id="svg_51" fill="#e0e0e0" height="5.98" width="5.98" y="145.02" x="116.91"/>
   <rect id="svg_52" fill="#e0e0e0" height="5.98" width="5.98" y="145.02" x="131.62"/>
   <rect id="svg_53" fill="#e0e0e0" height="5.98" width="5.98" y="144.75" x="146.6"/>
   <rect id="svg_54" fill="#e0e0e0" height="5.98" width="5.98" y="145.02" x="161.04"/>
   <path id="svg_55" fill="#e0e0e0" d="m78.9,326a12.11,12.11 0 0 1 -6.28,-6.26c-0.5,-1.15 -0.51,-2.94 0.72,-3.2c0.76,-0.16 1.44,0.43 2,1l5.48,5.44a11.49,11.49 0 0 1 0.38,-8.91c0.47,-1 1.44,-2 2.47,-1.66c0.8,0.3 1.06,1.29 1.2,2.14l1.32,7.86a18.72,18.72 0 0 1 4.31,-8.23c0.76,-0.85 2,-1.68 2.94,-1.08s0.81,1.77 0.63,2.76a39.17,39.17 0 0 1 -2,7.2a13.54,13.54 0 0 1 8.52,-3.38a3,3 0 0 1 2.52,0.81c0.85,1.08 0.1,2.66 -0.8,3.69c-2.69,3 -9,3.82 -13,3.55"/>
   <path id="svg_56" fill="#ebebeb" d="m103.15,332.46c-9.81,-7.73 -27.06,-8.82 -38.42,-3.62c-12.83,5.87 -21.22,19.52 -22.48,32.61c-1.19,12.43 4.8,25 9.9,36.45l49.57,0.23c6,-9.83 12.13,-20.82 12.54,-32.3s-2.08,-26.27 -11.11,-33.37z"/>
   <path id="svg_57" fill="#e0e0e0" d="m80.92,325.64l-0.22,0.06l-0.65,0.16l-1,0.23a7.88,7.88 0 0 0 -1.42,0.37a27.91,27.91 0 0 0 -8.4,4a37.83,37.83 0 0 0 -9.56,9.93a57.14,57.14 0 0 0 -4,7.14a62.35,62.35 0 0 0 -3.08,8.24a37.79,37.79 0 0 0 -0.84,16.8a72.92,72.92 0 0 0 3.68,13.43c1.37,3.71 2.6,6.68 3.41,8.75c0.39,1 0.7,1.8 0.92,2.38c0.1,0.25 0.17,0.46 0.23,0.63l0.07,0.21s-0.05,-0.06 -0.11,-0.2l-0.27,-0.6c-0.25,-0.57 -0.58,-1.36 -1,-2.35c-0.86,-2 -2.13,-5 -3.55,-8.71a71.05,71.05 0 0 1 -3.85,-13.41a37.8,37.8 0 0 1 0.81,-17a62.75,62.75 0 0 1 3.11,-8.3a57.33,57.33 0 0 1 4.07,-7.19a37.62,37.62 0 0 1 9.73,-10a27.46,27.46 0 0 1 8.54,-3.93a9.66,9.66 0 0 1 1.46,-0.28l1.07,-0.19l0.65,-0.1l0.2,-0.07z"/>
   <path id="svg_58" fill="#e0e0e0" d="m95.36,397.73a3.87,3.87 0 0 1 0.23,-0.74l0.74,-2.09c0.65,-1.81 1.6,-4.44 2.71,-7.7s2.36,-7.16 3.44,-11.58a75.33,75.33 0 0 0 2.21,-14.62a50.61,50.61 0 0 0 -1.52,-14.63a39.75,39.75 0 0 0 -4.65,-11.06a32.1,32.1 0 0 0 -5.07,-6.31c-0.66,-0.7 -1.27,-1.14 -1.63,-1.49a4.41,4.41 0 0 1 -0.57,-0.54a5.46,5.46 0 0 1 0.63,0.46c0.38,0.33 1,0.75 1.7,1.43a31.51,31.51 0 0 1 5.22,6.29a39.39,39.39 0 0 1 4.79,11.13a50.11,50.11 0 0 1 1.56,14.76a73.5,73.5 0 0 1 -2.25,14.67c-1.11,4.43 -2.4,8.34 -3.55,11.59s-2.15,5.87 -2.85,7.7c-0.35,0.87 -0.62,1.56 -0.82,2.07a5.52,5.52 0 0 1 -0.32,0.66z"/>
   <path id="svg_59" fill="#e0e0e0" d="m85.78,325.93a4,4 0 0 1 -0.19,0.72l-0.65,2.06c-0.29,0.88 -0.63,2 -1,3.25s-0.84,2.71 -1.27,4.32c-0.93,3.21 -1.9,7.06 -2.88,11.36s-1.87,9.07 -2.63,14.11s-1.22,9.87 -1.52,14.27c-0.11,2.2 -0.26,4.29 -0.28,6.26c0,1 0,1.92 -0.06,2.83s0,1.79 0,2.62c0,1.67 0.07,3.18 0.11,4.5s0.1,2.47 0.17,3.4s0.1,1.62 0.13,2.15a4.27,4.27 0 0 1 0,0.75a5.42,5.42 0 0 1 -0.1,-0.74c-0.06,-0.53 -0.13,-1.25 -0.22,-2.14s-0.19,-2.08 -0.25,-3.4s-0.17,-2.84 -0.18,-4.51c0,-0.84 0,-1.71 0,-2.63s0,-1.86 0,-2.84c0,-2 0.14,-4.07 0.24,-6.28c0.28,-4.41 0.75,-9.26 1.49,-14.31s1.7,-9.82 2.67,-14.13s2,-8.16 3,-11.36c0.46,-1.61 0.93,-3.05 1.34,-4.31s0.76,-2.35 1.08,-3.23s0.55,-1.52 0.73,-2a4.88,4.88 0 0 1 0.27,-0.72z"/>
   <path id="svg_60" fill="#e0e0e0" d="m43.83,365.4a15.41,15.41 0 0 1 -3.39,1.8a16.11,16.11 0 0 1 -3.58,1.38a15.71,15.71 0 0 1 3.39,-1.8a16.31,16.31 0 0 1 3.58,-1.38z"/>
   <path id="svg_61" fill="#e0e0e0" d="m45.4,351.16a19,19 0 0 1 -3.72,-1.88a18.28,18.28 0 0 1 -3.48,-2.28a19,19 0 0 1 3.72,1.88a18.28,18.28 0 0 1 3.48,2.28z"/>
   <path id="svg_62" fill="#e0e0e0" d="m54.45,339.4a12.13,12.13 0 0 1 -1.64,-2.92a11.85,11.85 0 0 1 -1.22,-3.11a12.18,12.18 0 0 1 1.64,2.91a12.43,12.43 0 0 1 1.22,3.12z"/>
   <path id="svg_63" fill="#e0e0e0" d="m66.87,328.29a8.43,8.43 0 0 1 -1.8,-2a8.17,8.17 0 0 1 -1.42,-2.29a8,8 0 0 1 1.8,2a7.76,7.76 0 0 1 1.42,2.29z"/>
   <path id="svg_64" fill="#e0e0e0" d="m49.45,382.8a18.19,18.19 0 0 1 -3.45,2.14a17.57,17.57 0 0 1 -3.69,1.73a17.8,17.8 0 0 1 3.47,-2.14a17.32,17.32 0 0 1 3.67,-1.73z"/>
   <path id="svg_65" fill="#e0e0e0" d="m64.25,374.14a13.9,13.9 0 0 1 -3.17,-1.51a13.54,13.54 0 0 1 -2.94,-1.92a13.4,13.4 0 0 1 3.17,1.51a13.12,13.12 0 0 1 2.94,1.92z"/>
   <path id="svg_66" fill="#e0e0e0" d="m68.37,354.34a9.27,9.27 0 0 1 -3.05,1.66a9.44,9.44 0 0 1 -3.34,0.87a19.19,19.19 0 0 1 3.17,-1.3a21.06,21.06 0 0 1 3.22,-1.23z"/>
   <path id="svg_67" fill="#e0e0e0" d="m73.08,339.42a5.85,5.85 0 0 1 -1.29,-2.42a5.66,5.66 0 0 1 -0.48,-2.69a13.29,13.29 0 0 1 0.93,2.54a13.27,13.27 0 0 1 0.84,2.57z"/>
   <path id="svg_68" fill="#e0e0e0" d="m62.57,393.56a14.15,14.15 0 0 1 1.33,-3.33a14.5,14.5 0 0 1 1.75,-3.13a13.17,13.17 0 0 1 -1.33,3.33a13.46,13.46 0 0 1 -1.75,3.13z"/>
   <path id="svg_69" fill="#e0e0e0" d="m87.56,388.25a10.23,10.23 0 0 1 -2.9,-2.6a10.4,10.4 0 0 1 -2.11,-3.25a36.58,36.58 0 0 1 2.47,3a37.62,37.62 0 0 1 2.54,2.85z"/>
   <path id="svg_70" fill="#e0e0e0" d="m96.22,366.46a18.84,18.84 0 0 1 -3.46,2.25a18.08,18.08 0 0 1 -3.69,1.84a18.41,18.41 0 0 1 3.46,-2.25a17.47,17.47 0 0 1 3.69,-1.84z"/>
   <path id="svg_71" fill="#e0e0e0" d="m90.39,353.05a16.54,16.54 0 0 1 2.68,-2.85a16.73,16.73 0 0 1 3,-2.51a16.61,16.61 0 0 1 -2.68,2.85a16.73,16.73 0 0 1 -3,2.51z"/>
   <path id="svg_72" fill="#e0e0e0" d="m90.65,338.83a12.21,12.21 0 0 1 -2.73,-1.92a12.12,12.12 0 0 1 -2.44,-2.28a12,12 0 0 1 2.73,1.92a12.12,12.12 0 0 1 2.44,2.28z"/>
   <path id="svg_73" fill="#e0e0e0" d="m107.17,329.42a12.36,12.36 0 0 1 -2.71,2a12.25,12.25 0 0 1 -3,1.66a12.58,12.58 0 0 1 2.71,-2.05a12.4,12.4 0 0 1 3,-1.61z"/>
   <path id="svg_74" fill="#e0e0e0" d="m113.54,342.45a8.85,8.85 0 0 1 -2.84,0.44a8.93,8.93 0 0 1 -2.86,0a9.08,9.08 0 0 1 2.83,-0.44a9.37,9.37 0 0 1 2.87,0z"/>
   <path id="svg_75" fill="#e0e0e0" d="m117.69,357.87a14.85,14.85 0 0 1 -3.61,-0.12a14,14 0 0 1 -3.57,-0.58a14.86,14.86 0 0 1 3.61,0.12a13.92,13.92 0 0 1 3.57,0.58z"/>
   <path id="svg_76" fill="#e0e0e0" d="m115.63,377.74a21.65,21.65 0 0 1 -3.32,-3a22.43,22.43 0 0 1 -3,-3.36a22.08,22.08 0 0 1 3.32,3a22.11,22.11 0 0 1 3,3.36z"/>
   <path id="svg_77" fill="#e0e0e0" d="m110.21,393.05a21.88,21.88 0 0 1 -5.94,-7.12c0.11,-0.08 1.31,1.62 3,3.58s3.03,3.49 2.94,3.54z"/>
   <rect id="svg_78" fill="#ebebeb" height="14.04" width="79.19" y="397.13" x="38.02"/>
   <polygon id="svg_79" fill="#ebebeb" points="44.52 407.56 54.15 449.51 101.35 449.51 111.88 407.56 44.52 407.56"/>
   <path id="svg_80" fill="#e0e0e0" d="m117.17,411.19c0,0.15 -17.86,0.28 -39.89,0.28s-39.9,-0.13 -39.9,-0.28s17.86,-0.28 39.9,-0.28s39.89,0.09 39.89,0.28z"/>
  </g>
  <g id="freepik--Character--inject-8">
   <path id="svg_81" fill="#263238" d="m332.72,227.54c-0.6,-9.41 -4.56,-18.39 -10.11,-26c-2.79,-3.84 -6.08,-7.57 -7.08,-12.21c-1.32,-6.18 1.61,-13.27 -1.77,-18.62c-2.37,-3.77 -7.19,-5.33 -9.89,-8.87c-2.91,-3.8 -2.84,-9.05 -4.56,-13.51s-7.52,-8.3 -11.07,-5.08c-0.68,-8.41 0.68,-13.13 -6.49,-17.56s-21.31,-2.29 -24.06,5.68c-6.1,-5.1 -17.25,-10 -24.26,-6.26c-4.32,2.32 -7.63,6.12 -11.65,8.94c-6.23,4.36 -13.84,6.17 -20.81,9.24s-13.86,8.16 -15.48,15.6c-1.19,5.49 0.73,11.26 -0.28,16.78c-0.86,4.65 -3.7,8.64 -5.88,12.83a48.89,48.89 0 0 0 -4.16,11.08c-1.82,7.5 -0.81,17.17 6.19,20.42a11.18,11.18 0 0 0 2.24,21.9l-11.79,21.37c-1.09,2 -2.22,4.16 -1.85,6.39c0.52,3.11 3.89,5.07 7,5.1s6.11,-1.38 8.93,-2.76a11.35,11.35 0 0 0 20.28,-0.54a13.93,13.93 0 0 0 24.42,0.13l47.88,-11l36.1,-3.33c5.24,-0.49 11.08,-1.3 14.29,-5.46c2.08,-2.71 2.56,-6.29 3,-9.68a80.31,80.31 0 0 0 0.86,-14.58z"/>
   <path id="svg_82" fill="#b47266" d="m249.12,360l-23.12,-61.34l12,-12l-0.47,-3.86c-1.31,-9.65 -1.79,-13.61 -1.79,-13.52s-20.8,-0.87 -28.3,-26.94c-3.73,-13 -5.74,-34.74 -6.81,-52.6c-1,-16.08 7.2,-37 23.3,-37.23l51.19,6.43a9.42,9.42 0 0 1 9.54,8.45l8.87,107.61l6.79,5.81l8.18,74.53l-59.38,4.66z"/>
   <path id="svg_83" fill="#263238" d="m212.4,210.48a3.43,3.43 0 0 0 3.71,3a3.28,3.28 0 0 0 3.14,-3.5a3.44,3.44 0 0 0 -3.71,-3a3.29,3.29 0 0 0 -3.14,3.5z"/>
   <path id="svg_84" fill="#263238" d="m246.5,207.58a3.43,3.43 0 0 0 3.71,3a3.28,3.28 0 0 0 3.13,-3.51a3.41,3.41 0 0 0 -3.7,-3a3.28,3.28 0 0 0 -3.14,3.51z"/>
   <path id="svg_85" fill="#263238" d="m206.76,202.2c0.48,0.39 2.82,-1.84 6.5,-2.28s6.58,1.06 6.93,0.56c0.17,-0.22 -0.36,-1 -1.64,-1.68a9.43,9.43 0 0 0 -5.62,-1a9,9 0 0 0 -5.1,2.37c-1.02,1.01 -1.3,1.83 -1.07,2.03z"/>
   <path id="svg_86" fill="#263238" d="m243.23,199.2c0.48,0.39 2.83,-1.84 6.5,-2.28s6.58,1.06 6.93,0.56c0.17,-0.22 -0.36,-1 -1.64,-1.68a9.43,9.43 0 0 0 -5.62,-1a9.08,9.08 0 0 0 -5.1,2.37c-1.02,1.01 -1.3,1.83 -1.07,2.03z"/>
   <path id="svg_87" fill="#263238" d="m233,225.51c0,-0.21 -2.33,-0.33 -6.09,-0.34c-1,0 -1.86,-0.06 -2.1,-0.68a4.87,4.87 0 0 1 0.29,-2.86l1.89,-7.47c2.6,-10.64 4.35,-19.33 3.92,-19.44s-2.88,8.44 -5.48,19.08c-0.61,2.62 -1.2,5.11 -1.77,7.5c-0.22,1.11 -0.68,2.39 0,3.74a2.38,2.38 0 0 0 1.71,1.18a6.33,6.33 0 0 0 1.62,0c3.67,-0.22 6.01,-0.5 6.01,-0.71z"/>
   <path id="svg_88" fill="#89544c" d="m235.77,269.25a68.19,68.19 0 0 0 34.45,-13.89s-6.67,19.64 -33.6,20.43l-0.85,-6.54z"/>
   <path id="svg_89" fill="#89544c" d="m234.24,234.94c2,-2.27 7.53,-5.88 9.35,-6.33s1.71,1.78 3,3.36a5.92,5.92 0 0 1 0.63,6.11c-1.13,2.23 -3.51,4.16 -5.68,3.92s-4.21,-2.41 -6,-3.66a4,4 0 0 1 -1.34,-1.26a2,2 0 0 1 -0.08,-1.93"/>
   <path id="svg_90" fill="#263238" d="m239.31,185.68c0.48,0.95 4.09,0 8.46,0s8,0.74 8.45,-0.23c0.21,-0.46 -0.51,-1.32 -2,-2.11a14,14 0 0 0 -6.46,-1.41a14.15,14.15 0 0 0 -6.43,1.57c-1.54,0.84 -2.24,1.72 -2.02,2.18z"/>
   <path id="svg_91" fill="#263238" d="m206.25,189.34c0.75,0.75 3.17,-0.42 6.21,-0.84s5.68,-0.13 6.16,-1.07c0.21,-0.46 -0.3,-1.25 -1.52,-1.9a9.07,9.07 0 0 0 -10,1.55c-0.94,0.99 -1.18,1.92 -0.85,2.26z"/>
   <path id="svg_92" fill="#b47266" d="m281.75,200.63c0.34,-0.22 14.17,-6.68 16,8.17s-13.51,13.59 -13.59,13.2s-2.41,-21.37 -2.41,-21.37z"/>
   <path id="svg_93" fill="#89544c" d="m288,215.8c0.06,-0.06 0.28,0.15 0.74,0.29a2.59,2.59 0 0 0 1.94,-0.19c1.5,-0.77 2.52,-3.42 2.26,-6.1a8.5,8.5 0 0 0 -1.17,-3.62a3,3 0 0 0 -2.18,-1.75a1.35,1.35 0 0 0 -1.45,0.9c-0.14,0.44 0,0.72 -0.09,0.76s-0.35,-0.21 -0.3,-0.84a1.58,1.58 0 0 1 0.47,-1a1.91,1.91 0 0 1 1.38,-0.55a3.63,3.63 0 0 1 3,2a8.73,8.73 0 0 1 1.4,4c0.27,3 -0.92,6 -3,6.87a2.79,2.79 0 0 1 -2.42,-0.11c-0.49,-0.31 -0.58,-0.63 -0.58,-0.66z"/>
   <path id="svg_94" fill="#455a64" d="m294.92,220.06c0,0.06 0.41,0.13 1.05,0.49a4.89,4.89 0 0 1 2,2.27a4.23,4.23 0 0 1 -0.36,4.24a5,5 0 0 1 -4.74,2.09a5.38,5.38 0 0 1 -3.74,-7.77a6.72,6.72 0 0 1 2,-2.36a8,8 0 0 0 1,-0.66a2.74,2.74 0 0 0 -1.11,0.44a6.34,6.34 0 0 0 -2.26,2.36a5.74,5.74 0 0 0 -0.43,4.82a5.94,5.94 0 0 0 4.48,3.84a5.58,5.58 0 0 0 5.37,-2.41a4.63,4.63 0 0 0 0.81,-2.55a5,5 0 0 0 -0.54,-2.25a4.8,4.8 0 0 0 -2.33,-2.29a2.14,2.14 0 0 0 -1.2,-0.26z"/>
   <path id="svg_95" fill="#263238" d="m240,241.56c0,-0.05 0.16,0 0.36,0.07a5,5 0 0 0 0.82,0.37a3.8,3.8 0 0 0 3,-0.77a6.78,6.78 0 0 0 1.77,-1.34a7.72,7.72 0 0 0 1.43,-2.07a4.1,4.1 0 0 0 0.29,-2.54a6.3,6.3 0 0 0 -1.36,-2.57c-1.32,-1.65 -3,-3.05 -4.56,-2.93a5.32,5.32 0 0 0 -2.25,0.88c-0.71,0.45 -1.39,0.9 -2,1.31c-2.41,1.63 -3.36,3.17 -3.56,3.07s0,-0.52 0.47,-1.26a11.41,11.41 0 0 1 2.41,-2.68c0.58,-0.49 1.22,-1 2,-1.51a6,6 0 0 1 2.83,-1.24a5.14,5.14 0 0 1 3.37,1a11.89,11.89 0 0 1 2.54,2.42a7.57,7.57 0 0 1 1.64,3.23a5.49,5.49 0 0 1 -0.48,3.45a7,7 0 0 1 -0.85,1.33a11,11 0 0 1 -1,1.06a7.19,7.19 0 0 1 -2.19,1.4a6.76,6.76 0 0 1 -2,0.64a2.51,2.51 0 0 1 -2.44,-1c-0.17,-0.17 -0.24,-0.28 -0.24,-0.32z"/>
   <path id="svg_96" fill="#455a64" d="m294.6,246.9a0.58,0.58 0 0 1 0.21,0l0.58,0.06a13.19,13.19 0 0 0 2.29,-0.05a14.77,14.77 0 0 0 7.81,-3.4a21.71,21.71 0 0 0 6.7,-11.26a28.27,28.27 0 0 0 1,-8.06a17.94,17.94 0 0 0 -2.31,-8.55l-0.06,-0.1l0.05,-0.11a18.58,18.58 0 0 0 -9.62,-24.9l-0.39,-0.17l0.33,-0.28a6,6 0 0 0 1.6,-2a8.35,8.35 0 0 0 0.33,-6.21a16,16 0 0 0 -3.19,-5.4a16.6,16.6 0 0 0 -4.65,-3.94a7.91,7.91 0 0 0 -5.62,-1l-0.58,0.14l0.31,-0.51a9.11,9.11 0 0 0 -10,-13.62l-0.34,0.09l0.1,-0.34a12,12 0 0 0 -2.2,-10.82a9.6,9.6 0 0 0 -1.81,-1.64a8.3,8.3 0 0 0 -2,-1a9.35,9.35 0 0 0 -3.93,-0.47a9.48,9.48 0 0 0 -3.09,0.82a8.43,8.43 0 0 0 -1.95,1.29a12.73,12.73 0 0 0 -1.29,1.47a3.14,3.14 0 0 1 0.26,-0.42a6,6 0 0 1 0.95,-1.13a8.12,8.12 0 0 1 2,-1.37a9.56,9.56 0 0 1 3.13,-0.88a9.38,9.38 0 0 1 4.05,0.43a8.47,8.47 0 0 1 2.1,1a10.22,10.22 0 0 1 1.89,1.68a12.36,12.36 0 0 1 2.34,11.14l-0.25,-0.25a9.56,9.56 0 0 1 10.48,14.27l-0.27,-0.37a8.51,8.51 0 0 1 6,1a17.08,17.08 0 0 1 4.8,4.06a16.44,16.44 0 0 1 3.29,5.57a8.79,8.79 0 0 1 -0.36,6.6a6.38,6.38 0 0 1 -1.73,2.19l-0.06,-0.44a19,19 0 0 1 9.83,25.57l0,-0.21a18.1,18.1 0 0 1 2.34,8.77a28.18,28.18 0 0 1 -1.07,8.17a21.76,21.76 0 0 1 -6.9,11.38a14.7,14.7 0 0 1 -8,3.33a12.05,12.05 0 0 1 -2.31,0l-0.59,-0.1l-0.2,-0.03z"/>
   <path id="svg_97" fill="#263238" d="m289.65,193.45c-0.39,-10.07 -0.82,-20.35 -4.43,-29.76a13.47,13.47 0 0 0 -3.59,-5.72a13.26,13.26 0 0 0 -5,-2.31c-2.79,-0.79 -3.55,-2.68 -6.44,-2.89c-11,-9.35 -26.79,-12.55 -40.73,-8.79s-25.81,14.21 -31.83,27.34a55.67,55.67 0 0 0 -1.2,42.2c-0.93,-10.7 5.85,-20.73 14.16,-27.54s18.25,-11.33 27,-17.5a10.39,10.39 0 0 1 -4,7.66c6.94,-1.86 14,-3.76 20.25,-7.22a38.51,38.51 0 0 0 4.07,-2.56a12.85,12.85 0 0 0 1.33,4.69c2.35,4.61 7.39,7.07 11.23,10.54a4.06,4.06 0 0 1 1.17,1.47a4.63,4.63 0 0 1 -0.19,2.86a22.42,22.42 0 0 0 -1,9.29c0.47,3.1 2.21,6.15 5,7.5a9.31,9.31 0 0 0 0.58,10.8a2.4,2.4 0 0 0 1.35,0.94c0.91,0.13 1.67,-0.66 2.19,-1.42a19.22,19.22 0 0 0 3.09,-7.37a7.13,7.13 0 0 1 1,-3.19c1,-1.27 2.86,-1.53 4.09,-2.6c1.94,-1.51 1.99,-4.13 1.9,-6.42z"/>
   <path id="svg_98" fill="#455a64" d="m211.44,170.18a4.63,4.63 0 0 1 0.2,-0.75a10.08,10.08 0 0 1 1,-2a10.87,10.87 0 0 1 6.43,-4.76l-0.15,0.18a22.05,22.05 0 0 1 0.89,-4.26a23.41,23.41 0 0 1 2,-4.46a22.36,22.36 0 0 1 7.75,-7.72a18.71,18.71 0 0 1 4.56,-2a6.88,6.88 0 0 1 2.43,-0.18a3.29,3.29 0 0 1 2.13,1.1l-0.39,0a19.13,19.13 0 0 1 6.76,-5.49c2.36,-1.17 4.82,-1.66 6.73,-1.09a4.89,4.89 0 0 1 3.29,3a3.41,3.41 0 0 1 0.19,1.2a1.13,1.13 0 0 1 -0.06,0.41a4.37,4.37 0 0 0 -0.29,-1.55a4.77,4.77 0 0 0 -3.21,-2.73c-1.82,-0.5 -4.17,0 -6.46,1.17a19,19 0 0 0 -6.56,5.41l-0.19,0.24l-0.19,-0.23c-0.9,-1.08 -2.59,-1.11 -4.06,-0.74a18.41,18.41 0 0 0 -4.42,1.92a22.23,22.23 0 0 0 -7.59,7.53a22.84,22.84 0 0 0 -2,4.35a22.12,22.12 0 0 0 -0.93,4.16l0,0.11l-0.13,0a10.85,10.85 0 0 0 -6.35,4.49a17.41,17.41 0 0 0 -1.38,2.69z"/>
   <path id="svg_99" fill="#455a64" d="m193.39,259.63l-0.25,0.38l-0.8,1.13l-0.06,0.08l0,-0.1a31.55,31.55 0 0 1 -1.59,-10a33.27,33.27 0 0 1 4.74,-17.12l0.09,0.28a11.54,11.54 0 0 1 -6.61,-10.31a10.16,10.16 0 0 1 0.52,-3.47a9.49,9.49 0 0 0 0.48,-1.64a1.88,1.88 0 0 0 -0.45,-1.48a11.61,11.61 0 0 0 -1.29,-1.21a16.3,16.3 0 0 1 -1.32,-1.31a17.83,17.83 0 0 1 -2.2,-3.07a17,17 0 0 1 1.54,-18.92a16.12,16.12 0 0 1 1.41,-1.57c0.5,-0.48 1,-0.95 1,-1.54a8.28,8.28 0 0 0 -0.55,-1.93a16.24,16.24 0 0 1 -0.57,-2.07a19.41,19.41 0 0 1 -0.44,-4.31a21.07,21.07 0 0 1 7.4,-16.08c1.12,-0.95 2.38,-1.7 2.93,-3a10.7,10.7 0 0 0 0.61,-2c0.18,-0.69 0.41,-1.37 0.61,-2.05a21.79,21.79 0 0 1 4.19,-7.12a24,24 0 0 1 13,-7.7a23.55,23.55 0 0 1 6.91,-0.34a2.83,2.83 0 0 0 1.49,-0.28a7.31,7.31 0 0 0 1.16,-1l1.16,-1.09l1.21,-1a25.6,25.6 0 0 1 5,-2.94a26.48,26.48 0 0 1 4.93,-1.58a25.23,25.23 0 0 1 8.24,-0.45a24,24 0 0 1 5.12,1.18l1.26,0.5l0.43,0.19l-0.45,-0.14l-1.27,-0.45a26.22,26.22 0 0 0 -5.09,-1a25.57,25.57 0 0 0 -8.16,0.53a26.94,26.94 0 0 0 -4.85,1.6a25.73,25.73 0 0 0 -4.92,2.93l-1.18,1l-1.14,1.08a7,7 0 0 1 -1.24,1.09a3.14,3.14 0 0 1 -1.69,0.34c-0.57,0 -1.12,-0.08 -1.68,-0.08a13.45,13.45 0 0 0 -1.68,0a22.94,22.94 0 0 0 -3.45,0.44a23.68,23.68 0 0 0 -12.71,7.59a21.25,21.25 0 0 0 -4.08,7c-0.19,0.66 -0.42,1.32 -0.59,2a11.57,11.57 0 0 1 -0.64,2.08c-0.63,1.44 -2,2.24 -3.07,3.16a20.6,20.6 0 0 0 -7.2,15.68a19,19 0 0 0 0.43,4.2a15.93,15.93 0 0 0 0.56,2a7.93,7.93 0 0 1 0.57,2.11a2.91,2.91 0 0 1 -1.19,1.89a17.9,17.9 0 0 0 -1.37,1.52a16.56,16.56 0 0 0 0.62,21.35a15.35,15.35 0 0 0 1.27,1.28a10.6,10.6 0 0 1 1.34,1.27a2.34,2.34 0 0 1 0.55,1.83a9,9 0 0 1 -0.51,1.73a10,10 0 0 0 -0.51,3.31a11.16,11.16 0 0 0 6.32,10l0.2,0.09l-0.11,0.19a32.24,32.24 0 0 0 -3.8,9a33.41,33.41 0 0 0 0.39,17.95l-0.09,0l0.83,-1.1a4.47,4.47 0 0 1 0.29,-0.53z"/>
   <path id="svg_100" fill="#455a64" d="m282.54,127.53a41.46,41.46 0 0 0 -4.73,-0.33a11.51,11.51 0 0 0 -4.89,1.18a7.94,7.94 0 0 0 -4,4.45a6.6,6.6 0 0 0 -0.24,1.08l0,0.24l-0.23,0a13,13 0 0 0 -5.67,1.06a8.81,8.81 0 0 0 -3.59,2.93a7.81,7.81 0 0 0 -1.28,2.86c-0.15,0.73 -0.16,1.15 -0.2,1.15s0,-0.1 0,-0.3a5.05,5.05 0 0 1 0.05,-0.88a7.3,7.3 0 0 1 1.18,-3a9,9 0 0 1 3.68,-3.15a13,13 0 0 1 5.89,-1.16l-0.27,0.23a6.32,6.32 0 0 1 0.26,-1.17a8.33,8.33 0 0 1 4.2,-4.72a11.62,11.62 0 0 1 5.11,-1.12a17.61,17.61 0 0 1 3.49,0.36a5.19,5.19 0 0 1 1.24,0.29z"/>
   <polygon id="svg_101" fill="#e0e0e0" points="241.22 349.46 315.62 346.91 322.52 448.51 257.42 449.42 241.22 349.46"/>
   <path id="svg_102" fill="#2563EB" d="m299.12,274c1,-1.27 56.49,36.37 59,40.87s15.88,134.56 15.88,134.56l-72.49,0s-6.66,-107.12 -6.31,-117s3.92,-58.43 3.92,-58.43z"/>
   <path id="svg_103" fill="#2563EB" d="m131.8,450s-8.18,-16.83 -7.27,-25s7.27,-24.56 7.27,-24.56l16.37,-29.1s3.28,-24.25 5.09,-28.8s11.4,-35.31 22.74,-42.54s45.82,-12.19 45.82,-12.19l15.27,-11.34s15.19,44.85 17.46,57.13s15,116.4 15,116.4l-137.75,0z"/>
   <path id="svg_104" fill="#263238" d="m259.45,371.77a1,1 0 0 1 -0.17,-0.22l-0.47,-0.65l-1.74,-2.56l-6.32,-9.44c-2.66,-4 -5.81,-8.77 -9.32,-14l-5.48,-8.3c-1.88,-2.87 -3.92,-6 -4.61,-9.68a15.25,15.25 0 0 1 0.37,-6.63a45.94,45.94 0 0 1 2.1,-6l0.31,0.33l-10,3.48l-0.28,0.09l0,-0.3c-0.67,-8.71 -1.23,-16.05 -1.63,-21.26c-0.18,-2.56 -0.32,-4.59 -0.42,-6c0,-0.67 -0.07,-1.19 -0.09,-1.59a3.27,3.27 0 0 1 0,-0.55a3.25,3.25 0 0 1 0.08,0.54c0,0.4 0.1,0.92 0.17,1.59c0.13,1.43 0.31,3.46 0.55,6c0.44,5.2 1.07,12.54 1.81,21.25l-0.31,-0.2l10,-3.52l0.52,-0.18l-0.2,0.52a45.08,45.08 0 0 0 -2.07,5.93a14.74,14.74 0 0 0 -0.36,6.41c0.66,3.56 2.66,6.62 4.52,9.49s3.72,5.66 5.46,8.32l9.23,14.1l6.18,9.54l1.66,2.61l0.42,0.68c0.05,0.11 0.1,0.19 0.09,0.2z"/>
   <path id="svg_105" fill="#263238" d="m207.15,447.81a1,1 0 0 1 -0.1,-0.31l-0.24,-0.92c-0.2,-0.85 -0.48,-2 -0.85,-3.56c-0.71,-3.12 -1.73,-7.59 -3,-13.1c-2.44,-11.11 -5.8,-26.4 -9.52,-43.29l-9.44,-43.32c-1.22,-5.52 -2.2,-10 -2.89,-13.12q-0.49,-2.29 -0.78,-3.57c-0.08,-0.39 -0.14,-0.7 -0.19,-0.93a1.14,1.14 0 0 1 0,-0.33s0,0.11 0.09,0.31s0.15,0.54 0.24,0.92c0.21,0.85 0.51,2 0.88,3.55c0.74,3.09 1.79,7.56 3,13.09c2.52,11.06 5.9,26.37 9.58,43.29s7,32.21 9.37,43.32c1.18,5.53 2.15,10 2.82,13.14c0.32,1.53 0.58,2.72 0.76,3.57c0.07,0.39 0.13,0.7 0.18,0.94s0.09,0.32 0.09,0.32z"/>
   <g id="svg_106" opacity="0.3">
    <path id="svg_107" d="m200.57,448.51a55.48,55.48 0 0 1 24.14,-7.6c6.55,-0.48 13.31,0.19 19.56,-1.84c7,-2.27 12.51,-7.63 17.74,-12.83a12.85,12.85 0 0 0 3.53,-4.83c0.63,-1.91 0.1,-4.36 -1.69,-5.28c-1.38,-0.71 -3.05,-0.34 -4.55,0.08a156.24,156.24 0 0 0 -59.91,31.85"/>
   </g>
   <path id="svg_108" fill="#263238" d="m181.19,411s-0.4,-0.56 -1.09,-1.59a38.93,38.93 0 0 0 -3.23,-4.1a36.24,36.24 0 0 0 -30.91,-12a38.44,38.44 0 0 0 -5.15,0.86a18.36,18.36 0 0 1 -1.88,0.44a1.6,1.6 0 0 1 0.47,-0.19c0.31,-0.11 0.76,-0.28 1.36,-0.44a31.48,31.48 0 0 1 5.16,-1a35.49,35.49 0 0 1 31.23,12.09a32.51,32.51 0 0 1 3.12,4.24c0.34,0.53 0.55,1 0.71,1.24s0.23,0.45 0.21,0.45z"/>
   <path id="svg_109" fill="#263238" d="m189.15,407.05s-0.1,-0.15 -0.24,-0.46l-0.57,-1.36c-0.24,-0.59 -0.53,-1.31 -0.94,-2.12s-0.8,-1.76 -1.38,-2.75l-0.86,-1.57c-0.3,-0.54 -0.66,-1.08 -1,-1.65c-0.68,-1.16 -1.54,-2.31 -2.4,-3.54a55,55 0 0 0 -14.2,-13.34c-1.28,-0.8 -2.48,-1.58 -3.67,-2.18c-0.59,-0.32 -1.15,-0.65 -1.71,-0.92l-1.62,-0.76c-1,-0.51 -2,-0.86 -2.83,-1.2a21.65,21.65 0 0 0 -2.18,-0.81l-1.39,-0.49a1.73,1.73 0 0 1 -0.47,-0.21a2.31,2.31 0 0 1 0.5,0.11l1.42,0.39a22.56,22.56 0 0 1 2.22,0.73c0.85,0.33 1.84,0.65 2.88,1.15l1.64,0.73c0.57,0.26 1.14,0.59 1.74,0.89c1.22,0.6 2.43,1.38 3.73,2.16a57.1,57.1 0 0 1 7.79,6.07a56.53,56.53 0 0 1 6.53,7.4c0.87,1.25 1.71,2.42 2.39,3.59c0.34,0.58 0.7,1.13 1,1.68l0.84,1.6c0.56,1 0.94,2 1.31,2.8a21.24,21.24 0 0 1 0.87,2.17l0.48,1.39a2.52,2.52 0 0 1 0.12,0.5z"/>
   <path id="svg_110" fill="#263238" d="m340.35,358.8a0.61,0.61 0 0 1 0,0.22l-0.14,0.67c-0.14,0.62 -0.33,1.46 -0.58,2.53c-0.51,2.19 -1.26,5.37 -2.11,9.31a163.92,163.92 0 0 0 -3.93,31.17a88.73,88.73 0 0 0 1.23,17.23a70.08,70.08 0 0 0 3.71,13.61a62.27,62.27 0 0 0 4.09,8.59c0.55,1 1.05,1.71 1.34,2.22l0.35,0.58a1.1,1.1 0 0 1 0.1,0.21s-0.06,-0.05 -0.15,-0.18l-0.39,-0.55c-0.32,-0.5 -0.85,-1.2 -1.42,-2.18a56.6,56.6 0 0 1 -4.26,-8.56a68.28,68.28 0 0 1 -3.87,-13.67a87.38,87.38 0 0 1 -1.32,-17.31a155.73,155.73 0 0 1 4.09,-31.24c0.89,-3.94 1.7,-7.1 2.27,-9.28c0.29,-1.06 0.52,-1.89 0.68,-2.51c0.08,-0.26 0.14,-0.47 0.19,-0.65l0.12,-0.21z"/>
   <path id="svg_111" fill="#263238" d="m333.34,401.18a4,4 0 0 1 0,-0.76q0.08,-0.81 0.18,-2.16c0.1,-0.93 0.18,-2.08 0.28,-3.41s0.21,-2.85 0.31,-4.53c0.42,-6.71 0.71,-16 0.64,-26.26s-0.48,-19.55 -0.91,-26.26c-0.2,-3.36 -0.41,-6.07 -0.56,-7.95c-0.06,-0.9 -0.11,-1.61 -0.15,-2.16a3.17,3.17 0 0 1 0,-0.76a5.25,5.25 0 0 1 0.12,0.75c0.06,0.54 0.15,1.26 0.26,2.15c0.2,1.87 0.47,4.59 0.72,7.94c0.52,6.71 1,16 1.06,26.29s-0.28,19.57 -0.8,26.28c-0.11,1.68 -0.24,3.2 -0.38,4.53s-0.24,2.48 -0.36,3.41s-0.21,1.61 -0.28,2.15a6,6 0 0 1 -0.13,0.75z"/>
   <path id="svg_112" fill="#263238" d="m312.57,307.28a3,3 0 0 1 -0.21,0.84a5.18,5.18 0 0 1 -1.44,2a7.4,7.4 0 0 1 -3.52,1.7a20.59,20.59 0 0 1 -5.19,0.23l0.05,-0.36l6.71,1.66l0.19,0l0,0.18c-0.65,6.58 -1.61,14.46 -3,22.87c-1.87,11.55 -4.18,21.9 -6,29.34c-0.94,3.71 -1.75,6.71 -2.34,8.77c-0.29,1 -0.52,1.78 -0.7,2.36a7.19,7.19 0 0 1 -0.27,0.82a4.51,4.51 0 0 1 0.17,-0.84c0.15,-0.6 0.35,-1.39 0.61,-2.4c0.52,-2.07 1.28,-5.08 2.18,-8.8c1.76,-7.45 4,-17.8 5.88,-29.33c1.31,-8.32 2.31,-16.22 3.01,-22.78l0.17,0.23l-6.7,-1.73l0.06,-0.36a21.14,21.14 0 0 0 5.11,-0.14a7.38,7.38 0 0 0 3.45,-1.57a5.23,5.23 0 0 0 1.47,-1.89c0.23,-0.51 0.28,-0.8 0.31,-0.8z"/>
   <g id="svg_113" opacity="0.3">
    <path id="svg_114" d="m182.82,337.82a15.77,15.77 0 0 0 -3.7,-3.77a3,3 0 0 0 -4.84,3.14a10.27,10.27 0 0 0 1.31,3.14a112,112 0 0 1 12.5,37.81c0.8,5.66 1.16,11.4 2.38,17s2.48,9.83 6.37,14l1.6,-0.68a42.19,42.19 0 0 0 -0.78,-4.47c-5.21,-21.73 -9.77,-43.41 -14.84,-66.17"/>
   </g>
   <g id="svg_115" opacity="0.3">
    <path id="svg_116" d="m181.86,411.22c-0.69,-5.2 -4,-9.79 -8.19,-13s-9.19,-5 -14.21,-6.56a24.82,24.82 0 0 0 -8.34,-1.38c-2.83,0.16 -8.13,1.37 -9.79,3.67c18.73,-4.42 32.34,4.27 39.82,17.66"/>
   </g>
   <g id="svg_117" opacity="0.3">
    <path id="svg_118" d="m334,344.06c-1.42,15.4 -5.56,30.43 -7.4,45.78s-1.13,31.68 6.4,45.16c2.54,4.53 6.13,8.87 11.11,10.38c-5.93,-7.12 -8.85,-16.34 -9.92,-25.55s-0.45,-18.5 0,-27.76q1.05,-24 0.08,-48"/>
   </g>
   <path id="svg_119" fill="#fff" d="m185.14,348.6a7.29,7.29 0 0 1 -1.23,0.53a34.2,34.2 0 0 1 -3.49,1.1a44.46,44.46 0 0 1 -5.32,1a47.81,47.81 0 0 1 -6.64,0.38a49,49 0 0 1 -6.62,-0.63a40.94,40.94 0 0 1 -5.28,-1.25a32.4,32.4 0 0 1 -3.44,-1.23a7.61,7.61 0 0 1 -1.21,-0.57a5.63,5.63 0 0 1 1.28,0.38c0.81,0.29 2,0.67 3.47,1.07a51.27,51.27 0 0 0 5.26,1.13a48.58,48.58 0 0 0 13.12,0.25a48.28,48.28 0 0 0 5.29,-0.93c1.49,-0.35 2.69,-0.68 3.51,-0.94a5.55,5.55 0 0 1 1.3,-0.29z"/>
   <path id="svg_120" fill="#fff" d="m236.17,337.85a22.42,22.42 0 0 1 -4,2.69a30.66,30.66 0 0 1 -21.68,2.88a29.31,29.31 0 0 1 -9.54,-4.25a31.49,31.49 0 0 1 -8.21,-8.12a31,31 0 0 1 -2.95,-5.38a22.61,22.61 0 0 1 -1.73,-6.08a13.91,13.91 0 0 1 0.51,-6.32a7.89,7.89 0 0 1 4,-4.65a8.54,8.54 0 0 1 5.92,-0.38a9.07,9.07 0 0 1 4.74,3.16a10.64,10.64 0 0 1 2,5a12.81,12.81 0 0 1 -0.37,5.11a15.49,15.49 0 0 1 -5.09,7.5a23.16,23.16 0 0 1 -6.51,3.76a38.91,38.91 0 0 1 -5.44,1.6c-1.52,0.33 -2.72,0.53 -3.52,0.65l-0.93,0.14a1.44,1.44 0 0 1 -0.31,0l0.31,-0.08l0.91,-0.18c0.8,-0.16 2,-0.39 3.49,-0.75a39.18,39.18 0 0 0 5.38,-1.68a22.68,22.68 0 0 0 6.38,-3.76a15.16,15.16 0 0 0 4.91,-7.34a12.26,12.26 0 0 0 0.33,-4.92a10,10 0 0 0 -1.95,-4.8a8.52,8.52 0 0 0 -4.5,-3a8,8 0 0 0 -5.56,0.36a7.38,7.38 0 0 0 -3.73,4.36a13.37,13.37 0 0 0 -0.49,6.08a22.34,22.34 0 0 0 1.7,6a30.28,30.28 0 0 0 11,13.3a29,29 0 0 0 9.38,4.23a30.36,30.36 0 0 0 8.95,0.81a31.07,31.07 0 0 0 12.53,-3.45a18.48,18.48 0 0 0 1.79,-1c0.51,-0.3 0.94,-0.57 1.27,-0.81l0.77,-0.52l0.24,-0.16z"/>
   <path id="svg_121" fill="#fff" d="m243.58,298.35c0,0.09 -1.27,0.19 -3.3,0.57a35,35 0 0 0 -7.67,2.37a35.84,35.84 0 0 0 -6.93,4.06c-1.65,1.24 -2.58,2.12 -2.65,2a3.65,3.65 0 0 1 0.6,-0.68a19,19 0 0 1 1.83,-1.66a30.34,30.34 0 0 1 6.94,-4.25a30.94,30.94 0 0 1 7.82,-2.26a22.59,22.59 0 0 1 2.46,-0.23a3,3 0 0 1 0.9,0.08z"/>
   <path id="svg_122" fill="#fff" d="m260,376.26l-0.35,-0.14l-1,-0.44a27,27 0 0 0 -4,-1.31a28.51,28.51 0 0 0 -15.11,0.55a29,29 0 0 0 -9.33,4.82a35.15,35.15 0 0 0 -8.16,8.88a39.54,39.54 0 0 0 -5.26,12.24a12.83,12.83 0 0 0 0.07,6.9a7.32,7.32 0 0 0 5.08,4.55a12.28,12.28 0 0 0 7.08,-0.16a14.11,14.11 0 0 0 5.88,-3.67a10.47,10.47 0 0 0 2.88,-5.94a9.16,9.16 0 0 0 -0.22,-3.22a11.13,11.13 0 0 0 -1.27,-2.91a15.3,15.3 0 0 0 -4.33,-4.34a20.71,20.71 0 0 0 -5.26,-2.54a29.64,29.64 0 0 0 -5.35,-1.19a31,31 0 0 0 -5.06,-0.16a30.41,30.41 0 0 0 -14.47,4.46a28.83,28.83 0 0 0 -3.39,2.44l-0.83,0.7l-0.29,0.22a2.68,2.68 0 0 1 0.25,-0.26l0.8,-0.74a25.78,25.78 0 0 1 3.35,-2.53a30.24,30.24 0 0 1 14.57,-4.66a30.6,30.6 0 0 1 5.12,0.13a29.39,29.39 0 0 1 5.43,1.18a20.88,20.88 0 0 1 5.38,2.57a15.63,15.63 0 0 1 4.49,4.46a11.39,11.39 0 0 1 1.33,3.05a9.68,9.68 0 0 1 0.25,3.4a11,11 0 0 1 -3,6.23a14.65,14.65 0 0 1 -6.09,3.82a12.81,12.81 0 0 1 -7.39,0.16a7.87,7.87 0 0 1 -5.42,-4.88a13.28,13.28 0 0 1 -0.08,-7.18a39.78,39.78 0 0 1 5.36,-12.39a35.47,35.47 0 0 1 8.3,-9a29.06,29.06 0 0 1 9.48,-4.83a28.18,28.18 0 0 1 15.27,-0.39a23.3,23.3 0 0 1 4,1.41l1,0.49l0.29,0.22z"/>
   <path id="svg_123" fill="#fff" d="m168.78,380.21c0,0.1 -1.13,0.24 -2.85,0.84a18.22,18.22 0 0 0 -2.9,1.32a18.29,18.29 0 0 0 -5.79,5.14a19.29,19.29 0 0 0 -1.64,2.73c-0.8,1.64 -1.07,2.75 -1.17,2.72a2.51,2.51 0 0 1 0.13,-0.8a12,12 0 0 1 0.7,-2.08a16.85,16.85 0 0 1 1.59,-2.85a18.7,18.7 0 0 1 2.67,-3a18.26,18.26 0 0 1 3.28,-2.23a15.3,15.3 0 0 1 3,-1.25a11.33,11.33 0 0 1 2.15,-0.45a2.64,2.64 0 0 1 0.83,-0.09z"/>
   <path id="svg_124" fill="#fff" d="m202.49,431.48s-0.09,-0.07 -0.25,-0.23s-0.4,-0.43 -0.69,-0.73c-0.6,-0.64 -1.49,-1.59 -2.67,-2.76a54.46,54.46 0 0 0 -11,-8.76a32.38,32.38 0 0 0 -8.95,-3.64a26.74,26.74 0 0 0 -11,-0.25a19,19 0 0 0 -10.52,5.8a10.68,10.68 0 0 0 -2.67,5.7a7.77,7.77 0 0 0 1.74,6.09a6.15,6.15 0 0 0 5.87,1.9a4.87,4.87 0 0 0 2.6,-1.65a6.53,6.53 0 0 0 1.32,-2.8a8.45,8.45 0 0 0 -1,-5.92a12,12 0 0 0 -4.08,-4.23a17.13,17.13 0 0 0 -10.63,-2.26a40.47,40.47 0 0 0 -9.47,2.05a51.24,51.24 0 0 0 -12.61,6.21c-1.38,0.94 -2.4,1.73 -3.1,2.27l-0.78,0.62c-0.18,0.14 -0.27,0.21 -0.28,0.2a33.21,33.21 0 0 1 4,-3.25a49.59,49.59 0 0 1 12.68,-6.4a40.75,40.75 0 0 1 9.55,-2.13a17.58,17.58 0 0 1 10.92,2.28a12.54,12.54 0 0 1 4.26,4.39a8.92,8.92 0 0 1 1.06,6.28a6.87,6.87 0 0 1 -1.41,3a5.4,5.4 0 0 1 -2.88,1.82a6.65,6.65 0 0 1 -6.38,-2.05a8.32,8.32 0 0 1 -1.86,-6.5a11.17,11.17 0 0 1 2.8,-6a19.37,19.37 0 0 1 10.8,-5.93a27.14,27.14 0 0 1 11.22,0.3a32.7,32.7 0 0 1 9,3.74a53.36,53.36 0 0 1 11,8.93c1.16,1.21 2,2.18 2.6,2.84l0.65,0.76l0.16,0.31z"/>
   <path id="svg_125" fill="#fff" d="m333.58,403.24a3.77,3.77 0 0 1 -0.66,0.46c-0.22,0.14 -0.49,0.32 -0.82,0.51l-1.18,0.59c-0.45,0.22 -1,0.4 -1.54,0.63s-1.21,0.37 -1.89,0.56a22.4,22.4 0 0 1 -4.78,0.56a20.59,20.59 0 0 1 -11.82,-3.71a12.85,12.85 0 0 1 -4.78,-5.64a5.94,5.94 0 0 1 0,-4a4.5,4.5 0 0 1 3,-2.74a8.62,8.62 0 0 1 7.61,1.9a8.42,8.42 0 0 1 2.35,3a6.27,6.27 0 0 1 0.46,3.66a7.49,7.49 0 0 1 -1.46,3.18a12.7,12.7 0 0 1 -2.34,2.3a26.58,26.58 0 0 1 -5,2.94a29.25,29.25 0 0 1 -8.07,2.33c-1,0.13 -1.76,0.19 -2.28,0.21a4,4 0 0 1 -0.8,0a4.53,4.53 0 0 1 0.79,-0.1c0.52,-0.06 1.28,-0.15 2.25,-0.31a30.85,30.85 0 0 0 8,-2.46a26.36,26.36 0 0 0 4.92,-2.95a9,9 0 0 0 3.6,-5.22a6.69,6.69 0 0 0 -2.66,-6.22a8.13,8.13 0 0 0 -7.14,-1.79a4,4 0 0 0 -2.69,2.43a5.33,5.33 0 0 0 0,3.63c0.83,2.35 2.76,4.05 4.58,5.42a20.34,20.34 0 0 0 11.53,3.73a22.81,22.81 0 0 0 4.71,-0.47c0.68,-0.18 1.31,-0.33 1.88,-0.52s1.09,-0.37 1.54,-0.57l1.19,-0.55c0.34,-0.17 0.61,-0.34 0.84,-0.46a6.06,6.06 0 0 1 0.66,-0.33z"/>
   <path id="svg_126" fill="#fff" d="m304.71,334.41a40.39,40.39 0 0 0 -5.17,1.76a38.92,38.92 0 0 0 -4.62,2.88a10.89,10.89 0 0 1 4.4,-3.35a11.16,11.16 0 0 1 5.39,-1.29z"/>
   <path id="svg_127" fill="#fff" d="m254.39,334.64a7.64,7.64 0 0 1 -0.79,2.31a18,18 0 0 1 -3.35,4.85a18.23,18.23 0 0 1 -4.73,3.52a7.79,7.79 0 0 1 -2.29,0.86a27.53,27.53 0 0 0 6.65,-4.74a27.18,27.18 0 0 0 4.51,-6.8z"/>
   <path id="svg_128" fill="#fff" d="m319.65,287.46s-0.71,0.13 -2,0.45a27.06,27.06 0 0 0 -5.17,1.9a26.36,26.36 0 0 0 -3.3,1.87a11.86,11.86 0 0 0 -3.11,2.95a7.15,7.15 0 0 0 -1.32,4.41a5.21,5.21 0 0 0 0.69,2.32a4.36,4.36 0 0 0 1.85,1.62a4.09,4.09 0 0 0 2.42,0.37a3.06,3.06 0 0 0 2,-1.21a4.27,4.27 0 0 0 0.15,-4.36a5,5 0 0 0 -3.3,-2.39a7.63,7.63 0 0 0 -3.69,0.05a14,14 0 0 0 -4.81,2.56c-1,0.79 -1.58,1.27 -1.61,1.24s0.11,-0.15 0.36,-0.39s0.62,-0.59 1.12,-1a13.25,13.25 0 0 1 4.84,-2.75a7.91,7.91 0 0 1 3.89,-0.12a5.41,5.41 0 0 1 3.63,2.59a4.76,4.76 0 0 1 -0.17,4.88a3.53,3.53 0 0 1 -2.29,1.42a4.61,4.61 0 0 1 -2.73,-0.41a4.81,4.81 0 0 1 -2.07,-1.82a5.67,5.67 0 0 1 -0.76,-2.56a7.62,7.62 0 0 1 1.44,-4.72a12.06,12.06 0 0 1 3.26,-3a26.28,26.28 0 0 1 3.39,-1.85a24.52,24.52 0 0 1 5.28,-1.76c0.64,-0.13 1.15,-0.19 1.49,-0.23a1.93,1.93 0 0 1 0.52,-0.06z"/>
   <path id="svg_129" fill="#fff" d="m332.7,348.76a7.49,7.49 0 0 1 -0.52,0.68c-0.18,0.21 -0.44,0.43 -0.73,0.72a9.28,9.28 0 0 1 -1.16,0.79a10.69,10.69 0 0 1 -8.71,0.68a11.54,11.54 0 0 1 -5.09,-3.47a16.45,16.45 0 0 1 -3.3,-6.26a22.19,22.19 0 0 1 -0.79,-7.79a14,14 0 0 1 2.85,-7.87a8.77,8.77 0 0 1 7.63,-3.19a6.19,6.19 0 0 1 3.65,1.77a5.17,5.17 0 0 1 1.55,3.57a5,5 0 0 1 -1.46,3.41a7.61,7.61 0 0 1 -2.93,1.89a11.6,11.6 0 0 1 -6.15,0.4a17.1,17.1 0 0 1 -4.79,-1.73a30.06,30.06 0 0 1 -3.26,-2c-0.86,-0.61 -1.51,-1.1 -1.94,-1.44a5.34,5.34 0 0 1 -0.65,-0.54a4.42,4.42 0 0 1 0.71,0.46l2,1.35a33.09,33.09 0 0 0 3.28,1.92a17.19,17.19 0 0 0 4.72,1.63a11.33,11.33 0 0 0 5.94,-0.44a7.11,7.11 0 0 0 2.74,-1.8a4.57,4.57 0 0 0 1.32,-3.1a4.73,4.73 0 0 0 -1.42,-3.23a5.75,5.75 0 0 0 -3.37,-1.61a8.3,8.3 0 0 0 -7.15,3a13.5,13.5 0 0 0 -2.75,7.58a21.75,21.75 0 0 0 0.74,7.62a16.37,16.37 0 0 0 3.17,6.11a11.12,11.12 0 0 0 4.88,3.4a10.63,10.63 0 0 0 8.49,-0.5a9.76,9.76 0 0 0 2.5,-2.01z"/>
   <path id="svg_130" fill="#fff" d="m360.77,341.56c0,0.11 -1.71,-0.5 -4.54,-0.71a21,21 0 0 0 -19,9.18a39.25,39.25 0 0 0 -2.26,4a4.38,4.38 0 0 1 0.38,-1.19a18.14,18.14 0 0 1 1.57,-3a20.4,20.4 0 0 1 19.32,-9.35a17.69,17.69 0 0 1 3.34,0.65a5.53,5.53 0 0 1 1.19,0.42z"/>
   <g id="svg_131" opacity="0.3">
    <path id="svg_132" d="m298.18,285.09c11.28,5.5 25,5.82 35.05,13.28a29.42,29.42 0 0 1 7.77,38.63c-0.73,-6.36 -2,-13.58 -7.38,-17c-2.36,-1.49 -5.18,-2 -7.8,-3c-2.95,-1.08 -5.67,-2.74 -8.66,-3.69c-4,-1.28 -8.42,-1.23 -12.44,-2.56s-7.93,-4.76 -7.63,-9l1.09,-16.66z"/>
   </g>
   <path id="svg_133" fill="#b47266" d="m340.88,335.26l-1.6,-20.11s-10.91,-2.11 -14.78,-4.57s-10.95,-7.58 -10.95,-7.58s-1.71,6.14 -5.23,6.49l-3.17,0.36l-0.15,-12.38s-0.6,5.56 -5.17,6.42c-1,0.2 -1.05,0 -1.05,0l-3.09,-16.21s-3.66,4.74 -10.35,1.58c0,0 10.84,-18.9 12.95,-19.6s13.51,-1 13.51,-1s15.83,-1 17.59,-0.32s4.22,3.48 4.22,3.48s18.65,17.95 24.63,23.93a35.57,35.57 0 0 1 9.15,17.95c0.36,3.16 3,16.35 3,16.35"/>
   <path id="svg_134" fill="#89544c" d="m370.45,330.1l-0.09,-0.33l-0.21,-1c-0.18,-0.88 -0.45,-2.15 -0.79,-3.81s-0.73,-3.72 -1.2,-6.13c-0.22,-1.2 -0.46,-2.5 -0.69,-3.89c-0.12,-0.69 -0.18,-1.42 -0.32,-2.14s-0.34,-1.46 -0.56,-2.21a38.74,38.74 0 0 0 -4.27,-9.39a31,31 0 0 0 -3.55,-4.63c-1.39,-1.46 -2.95,-2.89 -4.49,-4.41l-20.79,-20.16l0,0a23.48,23.48 0 0 0 -2,-2a6.55,6.55 0 0 0 -2.34,-1.46a17.86,17.86 0 0 0 -2.87,-0.17c-1,0 -2,0 -3,0c-4,0.09 -8.07,0.34 -12.26,0.54c-2.09,0.06 -4.2,0.14 -6.32,0.26c-1.06,0.06 -2.13,0.13 -3.2,0.22a17.37,17.37 0 0 0 -3.12,0.47a4.62,4.62 0 0 0 -1.08,1c-0.34,0.42 -0.68,0.84 -1,1.28c-0.64,0.88 -1.26,1.78 -1.87,2.7c-1.21,1.82 -2.39,3.7 -3.56,5.6c-1.81,3 -3.57,5.92 -5.26,8.85l-0.12,-0.36a9.82,9.82 0 0 0 5.38,1a7.59,7.59 0 0 0 4.66,-2.48l0.36,-0.41l0.09,0.52c1.06,5.55 2.09,11 3.08,16.21l0,0l0,0c0,-0.15 -0.05,-0.11 -0.07,-0.14l0.12,0a1.43,1.43 0 0 0 0.29,0a4.08,4.08 0 0 0 0.59,-0.11l0.58,-0.16l0.55,-0.23a5.48,5.48 0 0 0 1.86,-1.45a8.83,8.83 0 0 0 1.82,-4.33l0.48,0q0,6.42 0.1,12.4l-0.25,-0.22l3.08,-0.34a3.93,3.93 0 0 0 2.46,-1.32a13.15,13.15 0 0 0 2.68,-5l0.08,-0.27l0.24,0.16l6.74,4.66l3.17,2.2a14.2,14.2 0 0 0 3.19,1.78a53,53 0 0 0 6.53,2.11c2.11,0.55 4.12,1 6,1.4l0.11,0l0,0.11c0.47,6.36 0.85,11.39 1.11,14.84c0.12,1.71 0.21,3 0.28,3.93c0,0.43 0,0.77 0.06,1a2.86,2.86 0 0 1 0,0.34s0,-0.11 0,-0.34s-0.06,-0.57 -0.1,-1c-0.08,-0.91 -0.2,-2.22 -0.35,-3.93c-0.29,-3.45 -0.71,-8.47 -1.25,-14.82l0.12,0.12c-1.91,-0.37 -3.92,-0.82 -6,-1.37a53,53 0 0 1 -6.59,-2.09a14.24,14.24 0 0 1 -3.25,-1.8l-3.19,-2.19c-2.17,-1.49 -4.43,-3 -6.76,-4.64l0.32,-0.11a13.65,13.65 0 0 1 -2.76,5.2a4.34,4.34 0 0 1 -2.74,1.46l-3.07,0.35l-0.25,0l0,-0.25q-0.06,-6 -0.13,-12.41l0.48,0a9.39,9.39 0 0 1 -1.92,4.59a6.08,6.08 0 0 1 -2,1.59l-0.6,0.25l-0.63,0.17a4.66,4.66 0 0 1 -0.65,0.12l-0.35,0l-0.2,0l-0.12,0a0.2,0.2 0 0 1 -0.09,-0.05s-0.07,0 -0.12,-0.2l0,0l-3.09,-16.21l0.46,0.11a8.07,8.07 0 0 1 -5,2.68a10.28,10.28 0 0 1 -5.66,-1l-0.25,-0.12l0.14,-0.24q2.55,-4.42 5.27,-8.87c1.17,-1.9 2.35,-3.78 3.57,-5.62c0.61,-0.92 1.23,-1.83 1.89,-2.72c0.32,-0.44 0.66,-0.87 1,-1.3a4.63,4.63 0 0 1 1.29,-1.18a17.37,17.37 0 0 1 3.27,-0.49c1.07,-0.1 2.15,-0.16 3.21,-0.23c2.13,-0.11 4.25,-0.19 6.34,-0.25c4.16,-0.19 8.26,-0.44 12.26,-0.52c1,0 2,0 3,0a19,19 0 0 1 3,0.19a6.9,6.9 0 0 1 2.53,1.57a21.93,21.93 0 0 1 2.05,2l0,0l20.73,20.2c1.55,1.53 3.09,3 4.49,4.43a31.59,31.59 0 0 1 3.57,4.71a38.68,38.68 0 0 1 4.26,9.49c0.21,0.76 0.41,1.5 0.54,2.24s0.2,1.46 0.32,2.15c0.21,1.39 0.43,2.68 0.65,3.89c0.44,2.41 0.82,4.47 1.13,6.15s0.55,2.93 0.72,3.82c0.07,0.42 0.13,0.74 0.17,1s-0.07,0.44 -0.07,0.44z"/>
   <path id="svg_135" fill="#89544c" d="m314.52,269.66c0,0.09 -1.66,0.39 -4.24,1.28a65,65 0 0 0 -9.69,4.41a9.05,9.05 0 0 0 -2.39,1.75a7.8,7.8 0 0 0 -1.47,2.31a10.64,10.64 0 0 0 -0.92,4.59c0,1.36 0.1,2.47 0.11,3.23a4.54,4.54 0 0 1 -0.05,1.2a5.86,5.86 0 0 1 -0.16,-1.18c-0.07,-0.77 -0.22,-1.86 -0.27,-3.24a10.59,10.59 0 0 1 0.85,-4.79a7.94,7.94 0 0 1 1.54,-2.47a9.53,9.53 0 0 1 2.51,-1.86a54,54 0 0 1 9.83,-4.3a29.22,29.22 0 0 1 3.16,-0.79a4.54,4.54 0 0 1 1.19,-0.14z"/>
   <path id="svg_136" fill="#89544c" d="m326.4,273.2a10.18,10.18 0 0 1 -1.54,0.47c-1,0.3 -2.43,0.7 -4.15,1.36a36.12,36.12 0 0 0 -5.8,2.85c-1.06,0.61 -2.18,1.26 -3.37,1.88s-2.48,1.16 -3.63,1.89a5.43,5.43 0 0 0 -1.48,1.33a5.59,5.59 0 0 0 -0.81,1.75a22.1,22.1 0 0 0 -0.62,3.74a48.4,48.4 0 0 0 0,6.47c0.09,1.85 0.18,3.35 0.2,4.39a9.17,9.17 0 0 1 0,1.61a10.19,10.19 0 0 1 -0.18,-1.6c-0.09,-1.13 -0.22,-2.6 -0.37,-4.38a44.58,44.58 0 0 1 -0.08,-6.53a22.79,22.79 0 0 1 0.61,-3.84a6.11,6.11 0 0 1 0.88,-1.91a5.78,5.78 0 0 1 1.61,-1.47c1.24,-0.77 2.52,-1.27 3.69,-1.9s2.29,-1.25 3.36,-1.85a35.57,35.57 0 0 1 5.91,-2.78a39.29,39.29 0 0 1 4.23,-1.2a8.26,8.26 0 0 1 1.54,-0.28z"/>
   <path id="svg_137" fill="#89544c" d="m332.2,278.47a6.71,6.71 0 0 1 -1.28,0.5c-0.83,0.3 -2,0.73 -3.49,1.34a30.31,30.31 0 0 0 -10.21,6.69a15.9,15.9 0 0 0 -3.46,5.67a16.48,16.48 0 0 0 -0.91,5.39a22.58,22.58 0 0 0 0.7,5s-0.07,-0.1 -0.16,-0.32a8.72,8.72 0 0 1 -0.33,-1a14.06,14.06 0 0 1 -0.58,-3.73a16,16 0 0 1 4.37,-11.42a28.74,28.74 0 0 1 10.44,-6.59c1.49,-0.57 2.71,-1 3.57,-1.19a6.61,6.61 0 0 1 1.34,-0.34z"/>
   <path id="svg_138" fill="#89544c" d="m338.23,291s-0.06,0.09 -0.24,0.2a2.46,2.46 0 0 1 -0.85,0.31a6.26,6.26 0 0 1 -3.25,-0.5a11.58,11.58 0 0 0 -2.11,-0.62a4.78,4.78 0 0 0 -2.42,0.28a26.93,26.93 0 0 0 -5,3a15.59,15.59 0 0 0 -4.12,4a20.89,20.89 0 0 1 -2.63,4.07a6.39,6.39 0 0 1 -1.5,1.16a2.74,2.74 0 0 1 -1.41,0.32a3.16,3.16 0 0 1 -0.89,-0.16c-0.19,-0.07 -0.29,-0.11 -0.28,-0.13s0.42,0.1 1.17,0.09a2.73,2.73 0 0 0 1.27,-0.38a6.27,6.27 0 0 0 1.38,-1.15a24.11,24.11 0 0 0 2.49,-4.08a15.09,15.09 0 0 1 4.22,-4.21c0.86,-0.62 1.71,-1.18 2.54,-1.72a11.93,11.93 0 0 1 2.58,-1.33a5.19,5.19 0 0 1 2.65,-0.26a12,12 0 0 1 2.17,0.7a6.45,6.45 0 0 0 3.09,0.65a5.27,5.27 0 0 0 1.14,-0.24z"/>
   <path id="svg_139" fill="#89544c" d="m345.13,314.58a3,3 0 0 1 -0.75,-0.47a17,17 0 0 1 -1.85,-1.54a25.4,25.4 0 0 1 -7.53,-13.75a16.78,16.78 0 0 1 -0.31,-2.39a2.6,2.6 0 0 1 0,-0.88c0.09,0 0.2,1.24 0.66,3.2a28.63,28.63 0 0 0 7.45,13.56c1.39,1.43 2.39,2.2 2.33,2.27z"/>
   <path id="svg_140" fill="#89544c" d="m360.82,311.48a5.49,5.49 0 0 1 -1.42,1.75a12.31,12.31 0 0 1 -4.75,2.67a12.18,12.18 0 0 1 -5.44,0.34a5.72,5.72 0 0 1 -2.15,-0.68c0,-0.09 0.85,0.17 2.2,0.32a13.45,13.45 0 0 0 9.89,-2.93c1.06,-0.86 1.6,-1.53 1.67,-1.47z"/>
   <path id="svg_141" fill="#b47266" d="m381,442.57a23.79,23.79 0 0 1 -32.93,-3c-4.6,-5.38 -8.25,-12 -7.69,-19.07c1.42,-17.75 0.56,-88.07 0.56,-88.07l28.22,-7.25s21.75,85 22.82,99.83c0.49,6.49 -4.83,12.67 -10.98,17.56z"/>
   <path id="svg_142" fill="#b47266" d="m153.81,412.77l32.38,0l17.92,-6.3l5.21,-13.88s10.52,-8 21.45,2.1s17.67,30.31 17.67,30.31l-29,10.1s-18.09,13.52 -20.2,13.56l-57.89,0.78s-0.58,-25.73 12.46,-36.67z"/>
   <path id="svg_143" fill="#263238" d="m227.89,406.25l-3.79,-61.17a4,4 0 0 1 4,-4.21l33.35,0a4,4 0 0 1 4,3.81l2.4,61.16a4,4 0 0 1 -4,4.13l-32,0a4,4 0 0 1 -3.96,-3.72z"/>
   <path id="svg_144" fill="#455a64" d="m264,378.73a4.89,4.89 0 0 1 -0.06,-0.74c0,-0.54 -0.06,-1.25 -0.1,-2.13c-0.06,-1.91 -0.14,-4.57 -0.24,-7.83s-0.18,-7.25 -0.29,-11.61q-0.08,-3.29 -0.15,-6.86a11.31,11.31 0 0 0 -0.4,-3.5a2.88,2.88 0 0 0 -1,-1.37a3.48,3.48 0 0 0 -1.63,-0.59a32.42,32.42 0 0 0 -3.69,0l-3.63,0.08l-6.86,0.13l-11.61,0.2l-4.46,0.06a14.21,14.21 0 0 0 -3.32,0.21a2.29,2.29 0 0 0 -1.56,1.22a2.14,2.14 0 0 0 -0.12,0.71a1.13,1.13 0 0 1 0,-0.74a2.37,2.37 0 0 1 1.56,-1.44a13.51,13.51 0 0 1 3.38,-0.31l4.46,-0.14l11.61,-0.31l6.86,-0.16l3.63,-0.09a34,34 0 0 1 3.77,0a4.13,4.13 0 0 1 1.87,0.69a3.35,3.35 0 0 1 1.15,1.61a11.71,11.71 0 0 1 0.42,3.67q0.06,3.57 0.12,6.86c0.07,4.36 0.13,8.29 0.18,11.61s0.06,5.93 0.08,7.83c0,0.89 0,1.6 0,2.13a4,4 0 0 1 0.03,0.81z"/>
   <path id="svg_145" fill="#e0e0e0" d="m245.35,355a2.12,2.12 0 0 0 -2.2,-1.24a1.89,1.89 0 0 0 -2.35,1.61a2.42,2.42 0 0 0 1.8,2.43a2.47,2.47 0 0 0 2.3,-0.54a2,2 0 0 0 0.45,-2.26z"/>
   <path id="svg_146" fill="#b47266" d="m208.68,394.29l0,-6.23s6.12,-14.4 5.94,-13.87s10.85,-7.05 10.85,-7.05a30.65,30.65 0 0 1 -0.36,9.51a16.24,16.24 0 0 1 -3.64,6.32l-0.86,6.72l13.86,-11.29l16.53,-8.69a5.69,5.69 0 0 1 5.09,2.37c2.11,2.81 -0.88,5.62 -2.28,6.5s-14,10 -14,10l-7,8.07l1.49,1.7l12.36,-7.84s15.63,-11.41 19.14,-12.12l0.19,0a3.26,3.26 0 0 1 3.1,5.22c-4.3,5.59 -11.7,15.1 -12.07,14.77c-0.53,-0.46 -16.58,10.6 -16.58,10.6s16.05,-5.27 17.46,-6.5s15.8,-16.5 15.8,-16.5s1.93,0.35 2.28,4.74l-0.87,4.39s0.35,1.05 0.87,3.33s-7.55,17.92 -7.55,17.92s-31.61,17.38 -34.59,17.56s-14.05,0 -14.05,0l-11.11,-39.63z"/>
   <path id="svg_147" fill="#89544c" d="m274.77,394.54a5.43,5.43 0 0 1 -0.6,1.33a29.83,29.83 0 0 1 -2.19,3.35c-1,1.37 -2.24,2.93 -3.5,4.76a37.25,37.25 0 0 1 -4.73,5.53a49.16,49.16 0 0 1 -10.9,7.41c-1.49,0.78 -2.71,1.38 -3.57,1.79a7.11,7.11 0 0 1 -1.34,0.57a7.57,7.57 0 0 1 1.25,-0.75l3.49,-1.93a54.31,54.31 0 0 0 10.71,-7.47a38.37,38.37 0 0 0 4.7,-5.43c1.28,-1.82 2.57,-3.37 3.59,-4.7s1.81,-2.44 2.31,-3.23a12,12 0 0 1 0.78,-1.23z"/>
   <path id="svg_148" fill="#263238" d="m160.37,409.19a29.94,29.94 0 0 0 -5.82,3.61a31.58,31.58 0 0 0 -9.2,13.52a67.88,67.88 0 0 0 -3.35,16.23c-0.2,2.06 -0.36,3.75 -0.48,5c-0.06,0.55 -0.1,1 -0.14,1.37a1.43,1.43 0 0 1 -0.09,0.47a2.49,2.49 0 0 1 0,-0.48c0,-0.37 0,-0.83 0.05,-1.37c0,-1.19 0.14,-2.92 0.31,-5.05a63,63 0 0 1 3.19,-16.37a30.87,30.87 0 0 1 9.46,-13.63a20.78,20.78 0 0 1 4.31,-2.66c0.54,-0.27 1,-0.4 1.28,-0.52a2.85,2.85 0 0 1 0.48,-0.12z"/>
  </g>
  <g id="freepik--Desk--inject-8">
   <path id="svg_149" fill="#263238" d="m488.58,449.57c0,0.14 -104.22,0.26 -232.75,0.26s-232.77,-0.12 -232.77,-0.26s104.2,-0.26 232.77,-0.26s232.75,0.12 232.75,0.26z"/>
  </g>
  <g id="freepik--Device--inject-8">
   <polygon id="svg_150" fill="#e0e0e0" points="376.45 451.17 240.75 452.09 327.77 470.85 359.45 462.95 376.45 451.17"/>
   <path id="svg_151" fill="#ebebeb" d="m240.75,457.52l87,21.62l133.79,-10.31l26.46,-106.32c1.92,-6.41 -1.32,-9.92 -5.41,-9.9l-124.82,6.18a8.74,8.74 0 0 0 -8.07,6.95l-21.93,105.11l-87,-18.76l-0.02,5.43z"/>
   <path id="svg_152" fill="#263238" d="m240.75,457.52s0,-0.43 0,-1.33s0,-2.27 0,-4.1l0,0l0.06,0l87.05,18.62l-0.22,0.14l10.41,-50l5.87,-28.16q1.51,-7.29 3.08,-14.79q0.78,-3.75 1.57,-7.56c0.27,-1.27 0.53,-2.54 0.8,-3.82a9.9,9.9 0 0 1 1.37,-3.74a8.94,8.94 0 0 1 6.71,-4.13c2.67,-0.17 5.34,-0.28 8,-0.42l16.35,-0.81l33.8,-1.69l35.09,-1.74l18,-0.89l9.08,-0.45l4.56,-0.23a6.3,6.3 0 0 1 4.43,1.44a6.22,6.22 0 0 1 2,3.5a10.24,10.24 0 0 1 -0.1,4q-0.94,3.8 -1.88,7.57q-1.87,7.51 -3.72,15q-3.71,14.87 -7.3,29.32c-4.8,19.26 -9.44,37.9 -13.88,55.76l0,0.17l-0.18,0l-133.8,10.24l0,0l-63.94,-16l-17.31,-4.42l-4.42,-1.12c-1,-0.25 -1.48,-0.39 -1.48,-0.39l1.52,0.36l4.46,1.09l17.19,4.22l63.89,15.84l-0.05,0l133.78,-10.37l-0.22,0.18c4.44,-17.86 9.08,-36.51 13.86,-55.77q3.6,-14.44 7.29,-29.33q1.86,-7.43 3.73,-15c0.62,-2.5 1.24,-5 1.87,-7.53a9.83,9.83 0 0 0 0.1,-3.78a5.76,5.76 0 0 0 -1.79,-3.21c-2.3,-2.07 -5.67,-1.05 -8.64,-1.08l-9.08,0.45l-18,0.89l-35.09,1.73l-33.8,1.67l-16.35,0.81c-2.69,0.14 -5.38,0.24 -8,0.41a8.51,8.51 0 0 0 -6.35,3.9a9.75,9.75 0 0 0 -1.31,3.59c-0.26,1.27 -0.53,2.55 -0.79,3.81c-0.54,2.54 -1.06,5.06 -1.59,7.56q-1.56,7.51 -3.09,14.79q-3,14.55 -5.89,28.16c-3.8,18.11 -7.31,34.87 -10.48,50l0,0.17l-0.18,0l-87,-18.88l0,-0.05c0,1.82 0,3.18 0,4.08s0.01,1.32 0.01,1.32z"/>
   <path id="svg_153" fill="#fff" d="m412.67,406a7.56,7.56 0 0 0 -5.89,4.71a5.71,5.71 0 0 0 2.51,6.81c2.78,1.41 6.38,-0.24 8,-2.91a7.16,7.16 0 0 0 0.64,-5.71c-0.58,-2 -4,-3.31 -5.26,-2.9"/>
   <path id="svg_154" fill="#263238" d="m412.67,406a2.22,2.22 0 0 1 1.48,-0.06a6.7,6.7 0 0 1 1.65,0.58a5,5 0 0 1 1.84,1.44a3.08,3.08 0 0 1 0.58,1.27a7.44,7.44 0 0 1 0.23,1.45a7.27,7.27 0 0 1 -0.52,3.22a7.47,7.47 0 0 1 -5.76,4.35a5.11,5.11 0 0 1 -3.74,-1a5.68,5.68 0 0 1 -2,-3a6.21,6.21 0 0 1 0,-3.26a6.6,6.6 0 0 1 1.37,-2.48a7.86,7.86 0 0 1 3.38,-2.21a7.17,7.17 0 0 1 1.07,-0.27c0.25,0 0.38,0 0.38,0s-0.51,0.13 -1.38,0.48a8.1,8.1 0 0 0 -3.17,2.26a6.24,6.24 0 0 0 -1.23,2.36a5.74,5.74 0 0 0 0,3a5.21,5.21 0 0 0 1.81,2.74a4.61,4.61 0 0 0 3.37,0.88a7.08,7.08 0 0 0 5.38,-4a6.84,6.84 0 0 0 0.53,-3a4.92,4.92 0 0 0 -0.67,-2.53a5,5 0 0 0 -1.68,-1.41a7.43,7.43 0 0 0 -1.57,-0.63a4.08,4.08 0 0 0 -1.35,-0.18z"/>
  </g>
  <g id="freepik--Reminder--inject-8">
   <path id="svg_155" fill="#fff" d="m148.49,213.71l-68.77,0a6.29,6.29 0 0 0 -6.29,6.29l0,68.77a6.29,6.29 0 0 0 6.29,6.29l47.58,0l19.14,15.76l0,-15.76l2.05,0a6.29,6.29 0 0 0 6.29,-6.29l0,-68.77a6.29,6.29 0 0 0 -6.29,-6.29z"/>
   <path id="svg_156" fill="#2563EB" d="m80.48,213.71l68.3,0a6,6 0 0 1 6,6l0,19.45a0.23,0.23 0 0 1 -0.23,0.23l-80.89,0a0.23,0.23 0 0 1 -0.23,-0.23l0,-18.41a7,7 0 0 1 7.05,-7.04z"/>
   <path id="svg_159" fill="#263238" d="m125.47,228.28c0,0.15 -5.59,0.26 -12.48,0.26s-12.49,-0.11 -12.49,-0.26s5.59,-0.28 12.5,-0.28s12.47,0.14 12.47,0.28z"/>
   <path id="svg_160" fill="#263238" d="m148.49,213.71l0.43,0a5.74,5.74 0 0 1 1.24,0.19a6.31,6.31 0 0 1 3.83,2.9a6.45,6.45 0 0 1 0.88,3.46c0,1.32 0,2.75 0,4.29c0,3.1 0,6.65 0,10.63c0,7.95 0,17.59 0.05,28.6c0,5.51 0,11.37 0,17.54c0,1.54 0,3.1 0,4.68l0,2.38a7.36,7.36 0 0 1 -0.33,2.45a6.48,6.48 0 0 1 -5.7,4.43c-0.87,0.05 -1.68,0 -2.53,0l0.23,-0.23c0,5 0,10.29 0,15.76l0,0.51l-0.4,-0.33l-19.14,-15.74l0.16,0.05l-47.57,0a6.68,6.68 0 0 1 -2.17,-0.41a6.47,6.47 0 0 1 -3.35,-2.76a6.55,6.55 0 0 1 -0.81,-2a10.5,10.5 0 0 1 -0.14,-2.15l0,-12.46c0,-10.94 0,-21.49 0,-31.54c0,-5 0,-9.93 0,-14.69q0,-3.57 0,-7a23.78,23.78 0 0 1 0.12,-3.47a6.55,6.55 0 0 1 4.38,-5a9.83,9.83 0 0 1 3.3,-0.32l6.35,0l11.93,0l36,0.08l9.79,0l2.54,0c0.58,0 0.87,0 0.87,0l-0.87,0l-2.54,0l-9.79,0.05l-36,0.09l-18.25,0a9.5,9.5 0 0 0 -3.16,0.3a6.2,6.2 0 0 0 -2.65,2a6.12,6.12 0 0 0 -1.43,2.89a23.65,23.65 0 0 0 -0.1,3.39l0,7c0,4.76 0,9.67 0,14.69c0,10 0,20.6 0,31.54l0,12.49a9.91,9.91 0 0 0 0.13,2.05a6,6 0 0 0 3.83,4.41a11.53,11.53 0 0 0 4.14,0.38l45.6,0l0.07,0.05l19.13,15.77l-0.4,0.19c0,-5.47 0,-10.79 0,-15.76l0,-0.23l0.24,0c0.83,0 1.69,0 2.5,0a6.08,6.08 0 0 0 2.29,-0.64a6,6 0 0 0 3,-3.48a6.66,6.66 0 0 0 0.32,-2.31l0,-2.43c0,-1.58 0,-3.14 0,-4.68c0,-6.17 0,-12 0,-17.54c0,-11 0,-20.65 0,-28.6c0,-4 0,-7.53 0,-10.63s0.4,-5.83 -0.82,-7.67a6.18,6.18 0 0 0 -3.72,-2.9a9.58,9.58 0 0 0 -1.48,-0.27z"/>
   <rect id="svg_161" fill="#e0e0e0" rx="2.56" height="18.37" width="5.29" y="205.74" x="123.51"/>
   <path id="svg_162" fill="#263238" d="m126.25,224.11a3.25,3.25 0 0 0 1.5,-0.62a2.42,2.42 0 0 0 0.88,-1.61c0,-0.73 0,-1.64 0,-2.6c0,-2 0,-4.27 -0.05,-6.82c0,-1.29 0,-2.64 0,-4a2.32,2.32 0 0 0 -2.48,-2.43a2.33,2.33 0 0 0 -1.74,0.79a2.45,2.45 0 0 0 -0.56,1.81c0,1.4 0,2.75 0,4c0,2.55 0,4.86 0,6.83c0,0.48 0,0.94 0,1.38a6.73,6.73 0 0 0 0,1.21a2.49,2.49 0 0 0 1,1.54a3.31,3.31 0 0 0 1.55,0.52a1.09,1.09 0 0 1 -0.44,0a2.48,2.48 0 0 1 -1.22,-0.39a2.71,2.71 0 0 1 -1.17,-1.65a6.63,6.63 0 0 1 -0.07,-1.27c0,-0.44 0,-0.9 0,-1.38c0,-2 0,-4.28 -0.06,-6.83c0,-1.28 0,-2.63 0,-4a2.91,2.91 0 0 1 0.68,-2.15a2.81,2.81 0 0 1 2.13,-1a2.82,2.82 0 0 1 3,3c0,1.39 0,2.74 0,4c0,2.55 0,4.85 -0.06,6.82c0,1 0,1.83 -0.07,2.64a2.57,2.57 0 0 1 -1,1.73a2.37,2.37 0 0 1 -1.18,0.47a0.88,0.88 0 0 1 -0.64,0.01z"/>
   <rect id="svg_163" fill="#e0e0e0" rx="2.56" height="18.37" width="5.29" y="205.74" x="98.68"/>
   <path id="svg_164" fill="#263238" d="m101.41,224.11a3.23,3.23 0 0 0 1.51,-0.62a2.42,2.42 0 0 0 0.88,-1.61c0,-0.73 0,-1.64 0,-2.6c0,-2 0,-4.27 -0.06,-6.82c0,-1.29 0,-2.64 0,-4a2.32,2.32 0 0 0 -2.48,-2.43a2.32,2.32 0 0 0 -1.74,0.79a2.45,2.45 0 0 0 -0.57,1.81c0,1.4 0,2.75 0,4c0,2.55 0,4.86 -0.06,6.83c0,0.48 0,0.94 0,1.38a6.66,6.66 0 0 0 0,1.21a2.45,2.45 0 0 0 1,1.54a3.26,3.26 0 0 0 1.54,0.52s-0.14,0 -0.44,0a2.45,2.45 0 0 1 -1.21,-0.39a2.67,2.67 0 0 1 -1.17,-1.65a7.53,7.53 0 0 1 -0.08,-1.27c0,-0.44 0,-0.9 0,-1.38c0,-2 0,-4.28 0,-6.83c0,-1.28 0,-2.63 0,-4a3,3 0 0 1 0.69,-2.15a2.8,2.8 0 0 1 2.13,-1a2.83,2.83 0 0 1 3,3c0,1.39 0,2.74 0,4c0,2.55 0,4.85 0,6.82c0,1 0,1.83 -0.07,2.64a2.64,2.64 0 0 1 -1,1.73a2.41,2.41 0 0 1 -1.18,0.47a0.91,0.91 0 0 1 -0.69,0.01z"/>
   <g id="svg_165" opacity="0.3">
    <path id="svg_166" d="m95.65,214.48a24.92,24.92 0 0 1 -22.27,27.33l1,-13.67l12.39,-13.47l8.88,-0.19z"/>
   </g>
   <circle transform="rotate(-14.15 -50.12 23.13)" id="svg_167" fill="#fff" r="23.32" cy="236.65" cx="18.03"/>
   <path id="svg_168" fill="#455a64" d="m68.13,239.35a25.83,25.83 0 1 1 25.59,-29.46l0,0a25.87,25.87 0 0 1 -21.94,29.21a26.66,26.66 0 0 1 -3.65,0.25zm0.06,-46.63a21.19,21.19 0 0 0 -3,0.21a20.8,20.8 0 1 0 23.55,17.67l0,0a20.8,20.8 0 0 0 -20.55,-17.88z"/>
   <path id="svg_169" fill="none" d="m68.13,239.35a25.83,25.83 0 1 1 25.59,-29.46l0,0a25.87,25.87 0 0 1 -21.94,29.21a26.66,26.66 0 0 1 -3.65,0.25zm0.06,-46.63a21.19,21.19 0 0 0 -3,0.21a20.8,20.8 0 1 0 23.55,17.67l0,0a20.8,20.8 0 0 0 -20.55,-17.88z"/>
   <path id="svg_170" fill="#263238" d="m68.19,192.72a1.23,1.23 0 0 1 0.34,0c0.22,0 0.55,0 1,0a19.16,19.16 0 0 1 3.78,0.55a20.63,20.63 0 0 1 5.59,2.28a21.09,21.09 0 0 1 6,5.3a20.77,20.77 0 0 1 3.93,8.84a25.24,25.24 0 0 1 0.32,2.65a12.48,12.48 0 0 1 0,1.37c0,0.46 0,0.93 0,1.4a22.77,22.77 0 0 1 -1.2,5.63a23.16,23.16 0 0 1 -2.95,5.32a22.71,22.71 0 0 1 -4.47,4.45a21.07,21.07 0 0 1 -24.91,0a20.93,20.93 0 0 1 -7.31,-9.81a22.8,22.8 0 0 1 -1.14,-5.7a21.08,21.08 0 0 1 0.32,-5.42a20.82,20.82 0 0 1 15.59,-16.35c0.81,-0.18 1.54,-0.31 2.17,-0.39l1.61,-0.09l1,0l0.34,0l-0.34,0.05l-1,0.09l-1.6,0.14c-0.63,0.1 -1.34,0.24 -2.14,0.44a21.24,21.24 0 0 0 -5.51,2.3a21,21 0 0 0 -5.84,5.23a20.57,20.57 0 0 0 -3.85,8.67a20.27,20.27 0 0 0 -0.29,5.31a22.08,22.08 0 0 0 1.17,5.5a22.5,22.5 0 0 0 2.79,5.22a22.8,22.8 0 0 0 4.41,4.35a20.6,20.6 0 0 0 24.3,0a20.57,20.57 0 0 0 7.19,-9.54a21.62,21.62 0 0 0 1.2,-5.5c0.06,-0.45 0,-0.91 0,-1.36a12,12 0 0 0 0,-1.34c-0.09,-0.88 -0.13,-1.76 -0.3,-2.61a20.58,20.58 0 0 0 -3.8,-8.69a21,21 0 0 0 -11.33,-7.61a21,21 0 0 0 -3.74,-0.63c-0.87,-0.03 -1.33,-0.02 -1.33,-0.05z"/>
   <path id="svg_171" fill="#263238" d="m68.13,239.35l0.42,0l1.22,-0.07c0.54,0 1.2,-0.11 2,-0.23l2.67,-0.55a28,28 0 0 0 6.84,-2.87a26.43,26.43 0 0 0 7.27,-6.55a25.91,25.91 0 0 0 4.77,-10.8a12.1,12.1 0 0 0 0.24,-1.6c0,-0.54 0.12,-1.08 0.17,-1.63s0,-1.11 0,-1.67l0,-0.85l-0.08,-0.85a24.87,24.87 0 0 0 -1.44,-6.85a25.68,25.68 0 0 0 -24,-16.85a25.56,25.56 0 0 0 -24.08,16.82a25.27,25.27 0 0 0 -1.13,13.42a25.55,25.55 0 0 0 1.83,5.9a27.31,27.31 0 0 0 1.36,2.58l0.74,1.21l0.83,1.11a25.59,25.59 0 0 0 7.24,6.56a26.74,26.74 0 0 0 6.84,2.87a20.93,20.93 0 0 0 2.66,0.54a16.24,16.24 0 0 0 2,0.24l1.23,0.08l0.42,0a1.67,1.67 0 0 1 -0.42,0l-1.23,0a15.15,15.15 0 0 1 -2,-0.18a19.36,19.36 0 0 1 -2.68,-0.51a25.56,25.56 0 0 1 -14.35,-9.4l-0.84,-1.12l-0.76,-1.22a28.07,28.07 0 0 1 -1.4,-2.61a26.36,26.36 0 0 1 -1.88,-6a25.73,25.73 0 0 1 1.06,-13.69a26,26 0 0 1 24.53,-17.18a26.07,26.07 0 0 1 24.5,17.21a25.12,25.12 0 0 1 1.45,7l0.07,0.86l0,0.86c0,0.57 0,1.14 0,1.7s-0.12,1.12 -0.18,1.67a10.92,10.92 0 0 1 -0.25,1.62a26.27,26.27 0 0 1 -4.9,10.95a26.6,26.6 0 0 1 -7.41,6.57a27.86,27.86 0 0 1 -6.94,2.82l-2.7,0.51c-0.78,0.1 -1.45,0.15 -2,0.17s-1,0 -1.23,0s-0.46,0.01 -0.46,0.01z"/>
   <path id="svg_178" fill="#263238" d="m54.26,242.31a5.07,5.07 0 0 1 -1.09,-0.46a10.85,10.85 0 0 1 -1.17,-0.65a17.55,17.55 0 0 1 -1.56,-1a27.38,27.38 0 0 1 -3.73,-3a31.55,31.55 0 0 1 -3.82,-4.44a31.93,31.93 0 0 1 -2.87,-5.1a28.79,28.79 0 0 1 -1.53,-4.53a17.55,17.55 0 0 1 -0.37,-1.8a10.57,10.57 0 0 1 -0.19,-1.37a5.73,5.73 0 0 1 -0.06,-1.17c0.1,0 0.26,1.66 1,4.25a31.32,31.32 0 0 0 1.61,4.42a33.55,33.55 0 0 0 2.86,5a34,34 0 0 0 3.66,4.45a31.19,31.19 0 0 0 3.61,3c2.18,1.59 3.7,2.31 3.65,2.4z"/>
   <path id="svg_179" fill="#263238" d="m42.46,237a9.79,9.79 0 0 1 -1.67,-1.92a34,34 0 0 1 -3.17,-5.28a32.51,32.51 0 0 1 -2.13,-5.8a9.27,9.27 0 0 1 -0.49,-2.5a20.64,20.64 0 0 1 0.81,2.4a45.58,45.58 0 0 0 2.24,5.66a47.12,47.12 0 0 0 3,5.28a17.81,17.81 0 0 1 1.41,2.16z"/>
   <path stroke="null" id="svg_184" d="m93.93656,279.1968l13.6646,-14.03931l-13.66212,-14.03931l7.02354,-7.22124l13.6646,14.03931l13.6646,-14.03931l7.02354,7.22124l-13.66212,14.03931l13.6646,14.03931l-7.0285,7.21868l-13.66212,-14.03931l-13.66212,14.03931" fill="#455a64"/>
   <path stroke="null" id="svg_185" d="m80.07203,222.15852l-6.57749,-7.09994c0.88611,-1.57721 1.40577,-3.42244 1.40669,-5.40118c-0.00092,-5.77182 -4.33084,-10.44666 -9.67517,-10.44866c-5.34525,0.00199 -9.67702,4.67684 -9.67702,10.44766c0,5.76783 4.33177,10.44268 9.67702,10.44268c1.83405,0 3.5435,-0.56094 5.00465,-1.51743l6.57934,7.10094l3.26198,-3.52407zm-20.8318,-12.50212c0.00554,-3.5689 2.67955,-6.45431 5.98491,-6.46228c3.30351,0.00797 5.97937,2.89338 5.98491,6.46228c-0.00646,3.56691 -2.68139,6.45232 -5.98491,6.46029c-3.30536,-0.00797 -5.97937,-2.89338 -5.98491,-6.46029z" fill="#455a64"/>
  </g>
  <g id="freepik--speech-bubble--inject-8">
   <path id="svg_180" fill="#fafafa" d="m350.16,220.85l11.25,-19.85a53.1,53.1 0 1 1 12.72,14.16l0,0l-23.97,5.69z"/>
   <path id="svg_181" fill="#263238" d="m350.16,220.85l24,-5.77l-0.07,0.2l0,0a0.12,0.12 0 0 1 0,-0.18a0.12,0.12 0 0 1 0.16,0a54.32,54.32 0 0 0 10.88,6.48a52.83,52.83 0 0 0 14.45,4.07a48.64,48.64 0 0 0 8.34,0.4c1.43,-0.09 2.89,-0.13 4.36,-0.26l4.44,-0.68a53.14,53.14 0 0 0 32.76,-21.11a52.42,52.42 0 0 0 8.86,-20.29a53.64,53.64 0 0 0 -0.64,-23.35c-0.26,-1 -0.48,-2 -0.77,-2.92l-1,-2.85a49.55,49.55 0 0 0 -2.48,-5.59a25.14,25.14 0 0 0 -1.52,-2.67c-0.54,-0.88 -1.06,-1.77 -1.62,-2.64l-1.86,-2.49l-0.93,-1.25c-0.31,-0.42 -0.69,-0.78 -1,-1.17l-2.14,-2.36c-0.71,-0.79 -1.55,-1.44 -2.31,-2.17l-1.17,-1.06a11.66,11.66 0 0 0 -1.21,-1l-2.52,-1.88c-0.42,-0.3 -0.82,-0.65 -1.27,-0.91l-1.34,-0.82l-2.66,-1.61l-2.78,-1.36a25.21,25.21 0 0 0 -2.82,-1.25a53.53,53.53 0 0 0 -23.52,-3.63a51.73,51.73 0 0 0 -21.68,6.27a53.4,53.4 0 0 0 -25,30.65a57.14,57.14 0 0 0 -2.34,17.11a52.55,52.55 0 0 0 2.52,14.8a54,54 0 0 0 5.23,11.44a0.11,0.11 0 0 1 0,0.13l-11.35,19.76c0.43,-0.78 4,-7.11 11.14,-19.89l0,0.13a54.3,54.3 0 0 1 -5.3,-11.45a52.38,52.38 0 0 1 -2.59,-14.89a57.3,57.3 0 0 1 2.31,-17.24a53.84,53.84 0 0 1 25.16,-31a52.42,52.42 0 0 1 21.8,-6.44a54.16,54.16 0 0 1 23.76,3.65a25.65,25.65 0 0 1 2.84,1.27c0.93,0.45 1.88,0.89 2.81,1.36l2.69,1.63l1.35,0.82c0.45,0.27 0.85,0.62 1.28,0.93l2.55,1.9a11.77,11.77 0 0 1 1.22,1l1.18,1.07c0.77,0.74 1.62,1.4 2.33,2.2l2.16,2.38c0.35,0.4 0.73,0.76 1,1.18l0.94,1.26l1.88,2.52c0.57,0.87 1.09,1.77 1.64,2.66a26.7,26.7 0 0 1 1.53,2.7a48.66,48.66 0 0 1 2.5,5.64q0.53,1.46 1.05,2.88c0.29,1 0.52,2 0.78,3a54,54 0 0 1 0.63,23.57a52.92,52.92 0 0 1 -9,20.48a53.38,53.38 0 0 1 -33.11,21.26l-4.48,0.68c-1.48,0.13 -2.95,0.16 -4.39,0.24a46.42,46.42 0 0 1 -8.4,-0.42a52.87,52.87 0 0 1 -14.42,-4.12a54.43,54.43 0 0 1 -10.91,-6.57l0.18,-0.18l0,0a0.14,0.14 0 0 1 0,0.19l-0.05,0l-24.06,5.56z"/>
   <path id="svg_182" fill="#2563EB" d="m412.59,148.85l-1.77,28a4.55,4.55 0 0 1 -4.27,4.25l0,0a4.53,4.53 0 0 1 -4.78,-4l-3.11,-28.14a3.57,3.57 0 0 1 3.59,-4l6.83,0.1a3.57,3.57 0 0 1 3.51,3.79z"/>
   <path id="svg_183" fill="#2563EB" d="m400.6,196.85a6.84,6.84 0 1 0 4.34,-8.64a6.85,6.85 0 0 0 -4.34,8.64z"/>
  </g>
 </g>
</svg>